<svg width="135" height="52" viewBox="0 0 135 52" fill="none" xmlns="http://www.w3.org/2000/svg">
<path d="M37.6553 25.9998H37.6732M5.37939 25.9998H5.39733M8.9656 31.3791H8.98353M8.9656 20.6205H8.98353M34.069 31.3791H34.087M21.5173 36.7585H21.5353M21.5173 15.2412H21.5353M14.3449 34.9653H14.3628M14.3449 17.0343H14.3628M28.6897 34.9653H28.7077M28.6897 17.0343H28.7077M34.069 20.6205H34.087M17.9311 25.9998C17.9311 26.951 18.309 27.8631 18.9815 28.5357C19.654 29.2082 20.5662 29.586 21.5173 29.586C22.4684 29.586 23.3806 29.2082 24.0532 28.5357C24.7257 27.8631 25.1035 26.951 25.1035 25.9998C25.1035 25.0487 24.7257 24.1365 24.0532 23.464C23.3806 22.7915 22.4684 22.4136 21.5173 22.4136C20.5662 22.4136 19.654 22.7915 18.9815 23.464C18.309 24.1365 17.9311 25.0487 17.9311 25.9998Z" stroke="#6B6EF0" stroke-width="3.58621" stroke-linecap="round" stroke-linejoin="round"/>
<path d="M53.0366 34.972L47.8954 35C47.802 35 47.7553 34.9533 47.7553 34.8599L47.8113 15.1498C47.8113 15.0751 47.8487 15.0377 47.9234 15.0377L53.2887 15.0097C54.3534 14.9817 55.3153 15.2245 56.1745 15.7381C57.043 16.2518 57.7341 16.9476 58.2478 17.8254C58.7707 18.694 59.0322 19.6559 59.0322 20.7112V28.9483C59.0322 30.0503 58.7661 31.0589 58.2338 31.9741C57.6921 32.88 56.973 33.6038 56.0764 34.1455C55.1799 34.6778 54.1666 34.9533 53.0366 34.972ZM53.2887 18.4418L51.2855 18.4698L51.2575 31.4698H53.0366C53.7463 31.4698 54.344 31.2223 54.8297 30.7274C55.3153 30.2324 55.5581 29.6394 55.5581 28.9483V20.6832C55.5581 20.0761 55.334 19.5485 54.8857 19.1002C54.4374 18.6426 53.9051 18.4231 53.2887 18.4418ZM65.5104 35H62.2604C62.1857 35 62.1483 34.9533 62.1483 34.8599L62.2044 15.1498C62.2044 15.0751 62.2417 15.0377 62.3164 15.0377H68.116C69.1526 15.0377 70.1052 15.2899 70.9738 15.7942C71.8423 16.2985 72.5334 16.9756 73.047 17.8254C73.57 18.6753 73.8315 19.6372 73.8315 20.7112C73.8315 21.4116 73.7241 22.0467 73.5093 22.6164C73.2945 23.1861 73.0424 23.667 72.7528 24.0593C72.4727 24.4515 72.2158 24.741 71.9824 24.9278C73.019 26.0765 73.5373 27.426 73.5373 28.9763L73.5653 34.8599C73.5653 34.9533 73.5187 35 73.4253 35H70.1753C70.1005 35 70.0632 34.972 70.0632 34.9159V28.9763C70.0632 28.2852 69.8204 27.6875 69.3347 27.1832C68.8491 26.6789 68.2514 26.4267 67.5416 26.4267H65.6505L65.6225 34.8599C65.6225 34.9533 65.5851 35 65.5104 35ZM68.116 18.4698H65.6505V22.9806H68.116C68.7044 22.9806 69.2273 22.7611 69.685 22.3222C70.1519 21.8833 70.3854 21.3463 70.3854 20.7112C70.3854 20.1042 70.1613 19.5812 69.713 19.1422C69.2647 18.694 68.7324 18.4698 68.116 18.4698ZM80.2396 35H76.9896C76.8962 35 76.8495 34.9533 76.8495 34.8599L76.8775 15.1498C76.8775 15.0751 76.9149 15.0377 76.9896 15.0377H80.2116C80.2863 15.0377 80.3237 15.0751 80.3237 15.1498L80.3517 34.8599C80.3517 34.9533 80.3143 35 80.2396 35ZM88.6089 35.2802C87.591 35.2802 86.6524 35.0187 85.7932 34.4957C84.9433 33.9727 84.2616 33.2769 83.7479 32.4084C83.2436 31.5305 82.9915 30.5686 82.9915 29.5226V28.2058C82.9915 28.1031 83.0382 28.0517 83.1316 28.0517H86.3535C86.4283 28.0517 86.4656 28.1031 86.4656 28.2058V29.5226C86.4656 30.1483 86.6757 30.69 87.096 31.1476C87.5163 31.5959 88.0206 31.82 88.6089 31.82C89.2066 31.82 89.7156 31.5912 90.1359 31.1336C90.5561 30.6667 90.7663 30.1297 90.7663 29.5226C90.7663 28.8222 90.3086 28.2105 89.3934 27.6875C89.244 27.5941 89.0479 27.482 88.805 27.3513C88.5716 27.2112 88.2914 27.0524 87.9645 26.875C87.6377 26.6976 87.3201 26.5248 87.0119 26.3567C86.7038 26.1792 86.4049 26.0111 86.1154 25.8524C85.0694 25.236 84.2896 24.4655 83.776 23.5409C83.2716 22.607 83.0195 21.5611 83.0195 20.403C83.0195 19.3384 83.281 18.3764 83.804 17.5172C84.327 16.6674 85.0087 15.995 85.8492 15.5C86.6991 14.9957 87.619 14.7435 88.6089 14.7435C89.6269 14.7435 90.5608 14.9957 91.4107 15.5C92.2605 16.0136 92.9376 16.6954 93.4419 17.5453C93.9555 18.3951 94.2124 19.3477 94.2124 20.403V22.7565C94.2124 22.8312 94.175 22.8685 94.1003 22.8685H90.8783C90.8036 22.8685 90.7663 22.8312 90.7663 22.7565L90.7382 20.403C90.7382 19.7306 90.5281 19.1843 90.1078 18.764C89.6876 18.3437 89.1879 18.1336 88.6089 18.1336C88.0206 18.1336 87.5163 18.3578 87.096 18.806C86.6757 19.2543 86.4656 19.7866 86.4656 20.403C86.4656 21.0287 86.5964 21.5517 86.8578 21.972C87.1287 22.3922 87.619 22.7938 88.3288 23.1767C88.4035 23.2141 88.5762 23.3075 88.8471 23.4569C89.1179 23.6063 89.4168 23.7744 89.7436 23.9612C90.0798 24.1386 90.3834 24.3021 90.6542 24.4515C90.925 24.5916 91.0885 24.6756 91.1445 24.7037C92.0971 25.236 92.8489 25.8897 93.3999 26.6649C93.9602 27.44 94.2404 28.3926 94.2404 29.5226C94.2404 30.6153 93.9882 31.5959 93.4839 32.4644C92.9703 33.333 92.2885 34.0194 91.4387 34.5237C90.5888 35.028 89.6456 35.2802 88.6089 35.2802ZM100.452 35H97.2024C97.1277 35 97.0903 34.9533 97.0903 34.8599L97.1183 15.1498C97.1183 15.0751 97.165 15.0377 97.2584 15.0377H100.452C100.546 15.0377 100.592 15.0751 100.592 15.1498L100.564 22.9526H104.865V15.1498C104.865 15.0751 104.902 15.0377 104.977 15.0377H108.171C108.265 15.0377 108.311 15.0751 108.311 15.1498L108.367 34.8599C108.367 34.9533 108.321 35 108.227 35H105.005C104.912 35 104.865 34.9533 104.865 34.8599V26.4267H100.564V34.8599C100.564 34.9533 100.527 35 100.452 35ZM116.961 35H113.669C113.603 35 113.571 34.9626 113.571 34.8879L113.599 26.7349L109.76 15.1498C109.742 15.0751 109.77 15.0377 109.844 15.0377H113.038C113.132 15.0377 113.188 15.0751 113.206 15.1498L115.322 22.8685L117.479 15.1498C117.498 15.0751 117.544 15.0377 117.619 15.0377H120.841C120.916 15.0377 120.944 15.0751 120.925 15.1498L117.045 26.6228L117.073 34.8879C117.073 34.9626 117.035 35 116.961 35ZM122.388 34.8599L125.946 15.1498C125.965 15.0751 126.012 15.0377 126.086 15.0377H130.247C130.322 15.0377 130.368 15.0751 130.387 15.1498L133.805 34.8599C133.815 34.9533 133.777 35 133.693 35H130.513C130.42 35 130.368 34.9533 130.359 34.8599L130.051 32.7586H126.142L125.834 34.8599C125.825 34.9533 125.778 35 125.694 35H122.5C122.426 35 122.388 34.9533 122.388 34.8599ZM128.006 21.6358L126.717 29.6907H129.477L128.3 21.6358L128.132 20.5711L128.006 21.6358Z" fill="black"/>
</svg>
