<svg width="44" height="44" viewBox="0 0 44 44" fill="none" xmlns="http://www.w3.org/2000/svg">
<path d="M37.6548 22.0003H37.6727M5.37891 22.0003H5.39684M8.96511 27.3796H8.98304M8.96511 16.621H8.98304M34.0686 27.3796H34.0865M21.5168 32.759H21.5348M21.5168 11.2417H21.5348M14.3444 30.9659H14.3624M14.3444 13.0348H14.3624M28.6893 30.9659H28.7072M28.6893 13.0348H28.7072M34.0686 16.621H34.0865M17.9306 22.0003C17.9306 22.9515 18.3085 23.8636 18.981 24.5362C19.6536 25.2087 20.5657 25.5865 21.5168 25.5865C22.468 25.5865 23.3801 25.2087 24.0527 24.5362C24.7252 23.8636 25.103 22.9515 25.103 22.0003C25.103 21.0492 24.7252 20.137 24.0527 19.4645C23.3801 18.792 22.468 18.4141 21.5168 18.4141C20.5657 18.4141 19.6536 18.792 18.981 19.4645C18.3085 20.137 17.9306 21.0492 17.9306 22.0003Z" stroke="#6B6EF0" stroke-width="3.58621" stroke-linecap="round" stroke-linejoin="round"/>
</svg>
