<svg width="320" height="240" viewBox="0 0 320 240" fill="none" xmlns="http://www.w3.org/2000/svg">
<rect width="320" height="240" fill="#F3F5F7"/>
<g filter="url(#filter0_d_72_68)">
<rect x="49" y="76.5" width="222" height="87" rx="12" fill="white"/>
<rect x="49.5" y="77" width="221" height="86" rx="11.5" stroke="#E4E6E7"/>
</g>
<rect x="139" y="93.5" width="59" height="6" rx="3" fill="#6B6EF0"/>
<rect x="139" y="114.5" width="94" height="6" rx="3" fill="#D9D9D9"/>
<rect x="139" y="135.5" width="59" height="6" rx="3" fill="#D9D9D9"/>
<path fill-rule="evenodd" clip-rule="evenodd" d="M77.7405 125.083L91.2684 102.499C91.5532 102.03 91.9542 101.642 92.4326 101.373C92.911 101.103 93.4507 100.962 93.9996 100.962C94.5486 100.962 95.0883 101.103 95.5667 101.373C96.0451 101.642 96.446 102.03 96.7309 102.499L110.259 125.083C110.537 125.566 110.685 126.114 110.686 126.672C110.688 127.229 110.543 127.778 110.267 128.262C109.991 128.747 109.593 129.15 109.112 129.433C108.631 129.716 108.085 129.868 107.527 129.875H80.4718C79.9139 129.869 79.3672 129.717 78.8863 129.434C78.4053 129.152 78.0068 128.748 77.7305 128.263C77.4542 127.778 77.3098 127.23 77.3115 126.672C77.3133 126.114 77.4612 125.566 77.7405 125.083ZM93.9996 109.75C94.5079 109.75 94.9955 109.952 95.3549 110.311C95.7143 110.671 95.9163 111.158 95.9163 111.666V117.416C95.9163 117.925 95.7143 118.412 95.3549 118.772C94.9955 119.131 94.5079 119.333 93.9996 119.333C93.4913 119.333 93.0038 119.131 92.6443 118.772C92.2849 118.412 92.0829 117.925 92.0829 117.416V111.666C92.0829 111.158 92.2849 110.671 92.6443 110.311C93.0038 109.952 93.4913 109.75 93.9996 109.75ZM92.0829 123.166C92.0829 122.658 92.2849 122.171 92.6443 121.811C93.0038 121.452 93.4913 121.25 93.9996 121.25H94.015C94.5233 121.25 95.0108 121.452 95.3702 121.811C95.7297 122.171 95.9316 122.658 95.9316 123.166C95.9316 123.675 95.7297 124.162 95.3702 124.522C95.0108 124.881 94.5233 125.083 94.015 125.083H93.9996C93.4913 125.083 93.0038 124.881 92.6443 124.522C92.2849 124.162 92.0829 123.675 92.0829 123.166Z" fill="#6C7380"/>
<defs>
<filter id="filter0_d_72_68" x="41.6" y="73.1" width="236.8" height="101.8" filterUnits="userSpaceOnUse" color-interpolation-filters="sRGB">
<feFlood flood-opacity="0" result="BackgroundImageFix"/>
<feColorMatrix in="SourceAlpha" type="matrix" values="0 0 0 0 0 0 0 0 0 0 0 0 0 0 0 0 0 0 127 0" result="hardAlpha"/>
<feOffset dy="4"/>
<feGaussianBlur stdDeviation="3.7"/>
<feComposite in2="hardAlpha" operator="out"/>
<feColorMatrix type="matrix" values="0 0 0 0 0 0 0 0 0 0 0 0 0 0 0 0 0 0 0.06 0"/>
<feBlend mode="normal" in2="BackgroundImageFix" result="effect1_dropShadow_72_68"/>
<feBlend mode="normal" in="SourceGraphic" in2="effect1_dropShadow_72_68" result="shape"/>
</filter>
</defs>
</svg>
