<svg width="320" height="240" viewBox="0 0 320 240" fill="none" xmlns="http://www.w3.org/2000/svg">
<rect width="320" height="240" fill="#F3F5F7"/>
<circle cx="106.088" cy="103" r="5" fill="#D2D6DB"/>
<path d="M122.912 102.5C122.912 100.567 124.479 99 126.412 99H215.412C217.345 99 218.912 100.567 218.912 102.5V102.5C218.912 104.433 217.345 106 215.412 106H126.412C124.479 106 122.912 104.433 122.912 102.5V102.5Z" fill="#D2D6DB"/>
<circle cx="106.088" cy="120" r="5" fill="#D2D6DB"/>
<path d="M122.912 119.5C122.912 117.567 124.479 116 126.412 116H215.412C217.345 116 218.912 117.567 218.912 119.5V119.5C218.912 121.433 217.345 123 215.412 123H126.412C124.479 123 122.912 121.433 122.912 119.5V119.5Z" fill="#D2D6DB"/>
<circle cx="106.088" cy="137" r="5" fill="#D2D6DB"/>
<path d="M122.912 136.5C122.912 134.567 124.479 133 126.412 133H215.412C217.345 133 218.912 134.567 218.912 136.5V136.5C218.912 138.433 217.345 140 215.412 140H126.412C124.479 140 122.912 138.433 122.912 136.5V136.5Z" fill="#D2D6DB"/>
</svg>
