<svg width="187" height="209" viewBox="0 0 187 209" fill="none" xmlns="http://www.w3.org/2000/svg">
<g filter="url(#filter0_f_52_31463)">
<path opacity="0.0126582" d="M169.251 76.6439C165.093 78.2089 159.064 80.441 151.606 83.1786C136.69 88.6539 116.058 96.1499 93.2475 104.368C70.4371 112.587 49.766 119.971 34.7856 125.267C27.2954 127.915 21.228 130.041 17.0274 131.488C16.8763 131.54 16.7273 131.59 16.581 131.64C16.7257 131.586 16.8725 131.529 17.0221 131.473C21.18 129.908 27.2092 127.676 34.6671 124.938C49.5829 119.463 70.214 111.967 93.0244 103.749C115.835 95.5307 136.507 88.1457 151.487 82.8497C158.977 80.2018 165.045 78.0757 169.246 76.6292C169.397 76.5771 169.546 76.5267 169.693 76.4764C169.548 76.531 169.401 76.5875 169.251 76.6439Z" stroke="#8584F6" stroke-opacity="0.14" stroke-width="0.394917"/>
<path opacity="0.0253165" d="M174.523 73.9924C174.294 74.11 174.007 74.2514 173.662 74.4115C172.604 74.9025 171.024 75.5833 168.975 76.4324C164.879 78.1302 158.918 80.4986 151.528 83.3682C136.749 89.1073 116.262 96.8484 93.57 105.231C70.8782 113.614 50.2786 121.052 35.318 126.3C27.8375 128.923 21.7675 131 17.5512 132.373C15.4426 133.059 13.7995 133.57 12.6762 133.884C12.311 133.987 12.0018 134.065 11.7512 134.125C11.9805 134.008 12.2661 133.865 12.6103 133.706C13.6684 133.215 15.2488 132.535 17.2974 131.686C21.3937 129.988 27.3553 127.618 34.7451 124.749C49.5241 119.01 70.0115 111.268 92.7033 102.885C115.395 94.5024 135.995 87.0649 150.955 81.8173C158.435 79.1935 164.505 77.1183 168.721 75.7453C170.83 75.0587 172.473 74.5477 173.596 74.2329C173.962 74.1302 174.272 74.0522 174.523 73.9924Z" stroke="#8584F6" stroke-opacity="0.14" stroke-width="0.394917"/>
<path opacity="0.0379747" d="M174.414 73.2902C174.174 73.4629 173.795 73.6891 173.28 73.9666C172.252 74.5204 170.704 75.2662 168.688 76.1825C164.656 78.0144 158.765 80.5216 151.447 83.5261C136.811 89.535 116.475 97.5313 93.9069 106.09C71.3393 114.648 50.8146 122.148 35.8748 127.355C28.4045 129.959 22.3317 131.989 18.099 133.291C15.9823 133.942 14.3293 134.41 13.1927 134.677C12.6231 134.811 12.1899 134.893 11.8956 134.923C11.8272 134.93 11.7686 134.933 11.7193 134.934C11.7571 134.903 11.8035 134.867 11.8593 134.827C12.0994 134.654 12.4778 134.428 12.9929 134.15C14.0208 133.597 15.5685 132.851 17.5847 131.935C21.6166 130.103 27.5083 127.596 34.8266 124.591C49.4624 118.582 69.7987 110.586 92.3663 102.027C114.934 93.4689 135.459 85.9693 150.398 80.7621C157.869 78.1585 163.941 76.1288 168.173 74.8265C170.29 74.1752 171.944 73.7068 173.081 73.4397C173.65 73.3059 174.083 73.2243 174.378 73.1943C174.446 73.1873 174.505 73.1829 174.555 73.1816C174.517 73.2134 174.47 73.2498 174.414 73.2902Z" stroke="#8584F6" stroke-opacity="0.14" stroke-width="0.394917"/>
<path opacity="0.0506329" d="M174.183 72.4856C174.148 72.542 174.08 72.6204 173.967 72.7209C173.743 72.9205 173.381 73.1757 172.881 73.4847C171.885 74.1012 170.37 74.9126 168.387 75.8965C164.422 77.8635 158.605 80.5115 151.362 83.6537C136.876 89.9379 116.697 98.1969 94.2599 106.941C71.8225 115.685 51.3762 123.257 36.4581 128.432C28.9986 131.019 22.9235 133.006 18.6736 134.24C16.5477 134.857 14.8832 135.285 13.7323 135.505C13.1556 135.616 12.717 135.672 12.4169 135.677C12.2655 135.68 12.1615 135.668 12.0974 135.651C12.092 135.649 12.0878 135.646 12.0835 135.645C12.0857 135.641 12.0866 135.635 12.0896 135.631C12.1249 135.574 12.1939 135.496 12.3069 135.395C12.5312 135.196 12.8925 134.941 13.3919 134.632C14.3885 134.015 15.9033 133.204 17.8864 132.22C21.8507 130.253 27.6681 127.605 34.9114 124.463C49.3971 118.179 69.5758 109.919 92.0131 101.176C114.451 92.4317 134.897 84.8592 149.815 79.6847C157.274 77.0972 163.349 75.1107 167.599 73.8765C169.725 73.2592 171.39 72.8316 172.541 72.6112C173.118 72.5007 173.557 72.4436 173.857 72.4388C174.008 72.4365 174.112 72.448 174.176 72.4656C174.181 72.4672 174.186 72.4699 174.19 72.4714C174.188 72.4755 174.187 72.4807 174.183 72.4856Z" stroke="#8584F6" stroke-opacity="0.14" stroke-width="0.394917"/>
<path opacity="0.0632911" d="M173.72 71.7583C173.721 71.7597 173.722 71.7647 173.721 71.7758C173.72 71.7899 173.714 71.8129 173.699 71.8459C173.668 71.9135 173.606 72.0039 173.501 72.1175C173.293 72.3439 172.948 72.6283 172.464 72.9687C171.5 73.6476 170.02 74.5251 168.073 75.577C164.179 77.68 158.438 80.4696 151.273 83.7521C136.945 90.3165 116.931 98.8464 94.6301 107.785C72.3293 116.724 51.9656 124.379 37.07 129.529C29.6219 132.104 23.5435 134.051 19.2753 135.22C17.14 135.805 15.4631 136.193 14.297 136.367C13.7127 136.455 13.2672 136.487 12.96 136.468C12.8057 136.458 12.6978 136.436 12.6288 136.408C12.5953 136.395 12.5759 136.382 12.5651 136.373C12.5565 136.365 12.5542 136.361 12.5535 136.359C12.5533 136.359 12.5511 136.354 12.5524 136.341C12.5539 136.327 12.559 136.304 12.574 136.271C12.6047 136.204 12.6674 136.113 12.7721 135.999C12.9809 135.773 13.3252 135.488 13.8083 135.148C14.7724 134.469 16.253 133.592 18.2009 132.54C22.0947 130.437 27.8355 127.647 35.0001 124.365C49.3286 117.8 69.3416 109.271 91.6424 100.332C113.944 91.3926 134.308 83.7377 149.203 78.588C156.652 76.013 162.73 74.0654 166.998 72.8967C169.133 72.312 170.809 71.9245 171.976 71.7495C172.56 71.6618 173.006 71.6293 173.313 71.6488C173.468 71.6587 173.575 71.6814 173.644 71.709C173.677 71.7225 173.698 71.7349 173.708 71.7441C173.718 71.7525 173.72 71.7577 173.72 71.7583Z" stroke="#8584F6" stroke-opacity="0.14" stroke-width="0.394917"/>
<path opacity="0.0759494" d="M173.207 71.0191C173.217 71.0453 173.224 71.0906 173.198 71.1696C173.171 71.2503 173.114 71.3539 173.018 71.4806C172.824 71.7338 172.496 72.047 172.03 72.4183C171.1 73.1594 169.656 74.1026 167.745 75.223C163.925 77.4625 158.265 80.3965 151.182 83.8214C137.019 90.6707 117.178 99.4788 95.0192 108.622C72.8608 117.765 52.5826 125.512 37.7103 130.644C30.2733 133.21 24.1915 135.121 19.9039 136.227C17.7588 136.781 16.0698 137.13 14.8876 137.261C14.2952 137.326 13.8419 137.335 13.5261 137.292C13.3682 137.271 13.2548 137.237 13.1791 137.199C13.105 137.161 13.0776 137.124 13.0668 137.098C13.0561 137.072 13.0496 137.027 13.0755 136.948C13.1021 136.867 13.159 136.763 13.2557 136.637C13.4492 136.384 13.7771 136.07 14.2432 135.699C15.1735 134.958 16.6175 134.015 18.5286 132.894C22.3485 130.655 28.0086 127.722 35.0913 124.297C49.2551 117.448 69.0948 108.639 91.2533 99.4956C113.412 90.3522 133.691 82.6065 148.563 77.4743C156 74.908 162.082 72.9961 166.37 71.8901C168.515 71.3369 170.204 70.9872 171.386 70.8566C171.978 70.7912 172.431 70.782 172.747 70.8252C172.905 70.8468 173.019 70.8801 173.094 70.9186C173.168 70.9563 173.196 70.993 173.207 71.0191Z" stroke="#8584F6" stroke-opacity="0.14" stroke-width="0.394917"/>
<path opacity="0.0886076" d="M172.67 70.2488C172.711 70.3476 172.698 70.5215 172.514 70.8103C172.336 71.0908 172.026 71.4335 171.577 71.8358C170.682 72.6389 169.276 73.6479 167.403 74.8369C163.661 77.2135 158.085 80.2922 151.089 83.8617C137.097 90.9999 117.438 100.093 95.4283 109.449C73.4185 118.806 53.2289 126.653 38.3802 131.775C30.9554 134.336 24.8702 136.214 20.562 137.26C18.4067 137.783 16.7041 138.096 15.5045 138.183C14.9034 138.227 14.4407 138.213 14.1149 138.147C13.7797 138.079 13.6451 137.968 13.603 137.869C13.561 137.77 13.5741 137.596 13.7577 137.307C13.936 137.026 14.2472 136.683 14.6957 136.281C15.591 135.478 16.998 134.469 18.8703 133.28C22.6128 130.904 28.1877 127.825 35.184 124.256C49.1755 117.118 68.835 108.024 90.8448 98.6672C112.854 89.3108 133.044 81.4649 147.892 76.343C155.317 73.7817 161.403 71.9033 165.711 70.8574C167.867 70.3341 169.569 70.0206 170.769 69.9332C171.369 69.8894 171.832 69.9037 172.157 69.9699C172.493 70.0383 172.628 70.15 172.67 70.2488Z" stroke="#8584F6" stroke-opacity="0.14" stroke-width="0.394917"/>
<path opacity="0.101266" d="M172.109 69.4476C172.17 69.5867 172.158 69.7974 171.993 70.1094C171.83 70.4176 171.536 70.7891 171.106 71.222C170.247 72.0868 168.88 73.1617 167.048 74.4195C163.387 76.9334 157.9 80.1581 150.993 83.874C137.182 91.3046 117.712 100.689 95.8576 110.267C74.0035 119.844 53.9072 127.8 39.0829 132.919C31.6698 135.479 25.5797 137.328 21.2496 138.316C19.0832 138.811 17.3664 139.087 16.1484 139.133C15.5383 139.156 15.0655 139.12 14.7284 139.031C14.3873 138.941 14.2249 138.807 14.1639 138.668C14.1031 138.528 14.1149 138.319 14.2796 138.007C14.4425 137.699 14.737 137.327 15.1672 136.894C16.0262 136.029 17.3929 134.954 19.225 133.697C22.8866 131.183 28.3737 127.958 35.2802 124.242C49.0913 116.811 68.5611 107.426 90.4152 97.8484C112.269 88.2707 132.366 80.3159 147.19 75.197C154.603 72.6372 160.694 70.7882 165.024 69.7997C167.19 69.3052 168.907 69.0287 170.125 68.9832C170.735 68.9605 171.207 68.9962 171.544 69.0853C171.885 69.1755 172.048 69.3085 172.109 69.4476Z" stroke="#8584F6" stroke-opacity="0.14" stroke-width="0.394917"/>
<path opacity="0.113924" d="M171.525 68.6202C171.605 68.7971 171.598 69.042 171.451 69.3791C171.304 69.7153 171.027 70.1159 170.616 70.5795C169.795 71.5056 168.469 72.6459 166.679 73.9724C163.102 76.6236 157.708 79.9962 150.896 83.86C137.273 91.5863 118.001 101.269 96.309 111.076C74.6169 120.882 54.6166 128.954 39.8171 134.077C32.4163 136.639 26.3209 138.46 21.9676 139.394C19.7896 139.861 18.0572 140.104 16.8194 140.109C16.2 140.111 15.7165 140.054 15.367 139.942C15.0166 139.83 14.8285 139.673 14.7485 139.496C14.6686 139.319 14.6749 139.074 14.8223 138.737C14.9694 138.401 15.2454 138 15.6564 137.536C16.4775 136.61 17.8041 135.47 19.5937 134.143C23.1705 131.492 28.5653 128.12 35.3775 124.256C48.9999 116.53 68.272 106.847 89.9641 97.0408C111.656 87.2341 131.657 79.1623 146.456 74.0395C153.857 71.4778 159.952 69.6552 164.305 68.7213C166.483 68.2541 168.216 68.0115 169.453 68.0069C170.073 68.0046 170.557 68.0625 170.906 68.1743C171.257 68.2863 171.445 68.4433 171.525 68.6202Z" stroke="#8584F6" stroke-opacity="0.14" stroke-width="0.394917"/>
<path opacity="0.126582" d="M170.915 67.766C171.014 67.9784 171.018 68.2577 170.888 68.6215C170.757 68.986 170.498 69.4163 170.107 69.9102C169.326 70.8975 168.041 72.1026 166.296 73.4979C162.808 76.2864 157.51 79.8067 150.797 83.8195C137.371 91.8441 118.306 101.829 96.7824 111.872C75.2592 121.915 55.3588 130.111 40.5846 135.245C33.1965 137.812 27.0962 139.61 22.7183 140.491C20.5278 140.933 18.7793 141.142 17.5205 141.107C16.8907 141.09 16.3949 141.011 16.0317 140.877C15.669 140.744 15.4574 140.561 15.3583 140.349C15.2594 140.136 15.256 139.858 15.3862 139.494C15.5169 139.13 15.7754 138.699 16.1665 138.206C16.9483 137.218 18.2324 136.013 19.9777 134.618C23.4659 131.829 28.7628 128.309 35.4763 124.297C48.9015 116.272 67.9674 106.287 89.4905 96.2443C111.014 86.2016 130.914 78.005 145.688 72.8716C153.077 70.3045 159.178 68.5062 163.556 67.6243C165.746 67.1831 167.495 66.9733 168.753 67.0084C169.383 67.026 169.879 67.1043 170.242 67.2383C170.604 67.3721 170.816 67.5537 170.915 67.766Z" stroke="#8584F6" stroke-opacity="0.14" stroke-width="0.394917"/>
<path opacity="0.139241" d="M170.281 66.8897C170.399 67.1358 170.415 67.4473 170.302 67.8387C170.189 68.2317 169.949 68.692 169.578 69.2161C168.837 70.2641 167.598 71.5348 165.899 72.9984C162.503 75.924 157.307 79.5914 150.696 83.7545C137.477 92.0792 118.626 102.371 97.2787 112.657C75.9317 122.942 56.1355 131.27 41.3869 136.421C34.0114 138.996 27.9046 140.775 23.5004 141.608C21.297 142.024 19.5309 142.202 18.2496 142.128C17.6088 142.091 17.0993 141.992 16.7213 141.836C16.3448 141.68 16.1111 141.474 15.9925 141.227C15.8739 140.981 15.8581 140.67 15.971 140.278C16.0844 139.885 16.3247 139.426 16.6953 138.902C17.4362 137.854 18.6752 136.583 20.3742 135.12C23.77 132.194 28.9669 128.527 35.5776 124.364C48.7968 116.039 67.6464 105.746 88.9934 95.4608C110.341 85.1754 130.138 76.8477 144.886 71.6972C152.262 69.1215 158.369 67.3427 162.773 66.5101C164.977 66.0936 166.742 65.9164 168.024 65.99C168.665 66.0268 169.174 66.1252 169.552 66.2815C169.928 66.4371 170.162 66.6436 170.281 66.8897Z" stroke="#8584F6" stroke-opacity="0.14" stroke-width="0.394917"/>
<path opacity="0.151899" d="M169.621 65.9913C169.898 66.5494 169.736 67.375 169.03 68.4967C168.331 69.6049 167.138 70.9408 165.488 72.4728C162.189 75.5348 157.097 79.3505 150.594 83.6645C137.59 92.2909 118.964 102.894 97.8 113.428C76.6357 123.962 56.9464 132.429 42.2236 137.603C34.8609 140.191 28.7473 141.952 24.3152 142.738C22.0978 143.131 20.3129 143.277 19.0077 143.166C17.6867 143.054 16.9305 142.685 16.6526 142.127C16.3748 141.569 16.5363 140.743 17.2432 139.621C17.9416 138.513 19.1348 137.178 20.7854 135.646C24.0845 132.584 29.1758 128.768 35.6791 124.454C48.6835 115.828 67.3093 105.224 88.4736 94.6898C109.638 84.1559 129.327 75.6896 144.05 70.5156C151.412 67.9282 157.526 66.1668 161.958 65.3808C164.175 64.9876 165.96 64.8406 167.265 64.9516C168.586 65.0639 169.343 65.4332 169.621 65.9913Z" stroke="#8584F6" stroke-opacity="0.14" stroke-width="0.394917"/>
<path opacity="0.164557" d="M168.934 65.0711C169.252 65.6892 169.121 66.5766 168.462 67.7543C167.807 68.9223 166.662 70.3224 165.062 71.9223C161.863 75.12 156.882 79.0838 150.491 83.5492C137.711 92.4783 119.319 103.396 98.3447 114.184C77.3706 124.972 57.7924 133.584 43.0958 138.788C35.7463 141.39 29.6247 143.137 25.1633 143.879C22.9313 144.25 21.1269 144.368 19.7964 144.22C18.4546 144.072 17.6568 143.662 17.3388 143.044C17.0211 142.426 17.1518 141.539 17.8114 140.361C18.4655 139.193 19.6102 137.793 21.2103 136.194C24.4086 132.996 29.3903 129.033 35.7815 124.568C48.5618 115.638 66.9542 104.72 87.9282 93.9319C108.902 83.144 128.48 74.5323 143.177 69.3288C150.526 66.7266 156.647 64.9789 161.109 64.2367C163.341 63.8654 165.146 63.7479 166.477 63.895C167.818 64.0434 168.616 64.4531 168.934 65.0711Z" stroke="#8584F6" stroke-opacity="0.14" stroke-width="0.394917"/>
<path opacity="0.177215" d="M168.222 64.1357C168.581 64.8119 168.484 65.7595 167.873 66.9932C167.265 68.2202 166.17 69.6836 164.622 71.3507C161.529 74.6832 156.662 78.7951 150.387 83.4122C137.84 92.6444 119.691 103.88 98.9148 114.926C78.1384 125.973 58.6753 134.736 44.0051 139.975C36.6686 142.595 30.538 144.331 26.0454 145.032C23.7979 145.382 21.9722 145.472 20.615 145.29C19.2504 145.107 18.4106 144.657 18.051 143.981C17.6914 143.305 17.7878 142.357 18.3993 141.123C19.0073 139.896 20.1026 138.432 21.6501 136.765C24.7436 133.433 29.611 129.322 35.8858 124.705C48.4328 115.472 66.5815 104.237 87.3579 93.1905C108.134 82.1437 127.597 73.3807 142.268 68.1416C149.604 65.5216 155.734 63.7853 160.227 63.0842C162.474 62.7335 164.3 62.6439 165.657 62.8259C167.022 63.009 167.862 63.4594 168.222 64.1357Z" stroke="#8584F6" stroke-opacity="0.14" stroke-width="0.394917"/>
<path opacity="0.189873" d="M167.483 63.1841C167.886 63.9168 167.827 64.9241 167.265 66.2141C166.704 67.4996 165.661 69.0263 164.168 70.7603C161.184 74.2263 156.436 78.4846 150.283 83.2531C137.979 92.7882 120.082 104.342 99.5106 115.652C78.9389 126.962 59.5945 135.882 44.9509 141.162C37.6277 143.803 31.4884 145.53 26.9628 146.193C24.699 146.524 22.851 146.587 21.4654 146.371C20.0752 146.155 19.1935 145.665 18.7908 144.932C18.3882 144.2 18.4472 143.193 19.0091 141.903C19.5692 140.618 20.6124 139.091 22.1052 137.357C25.0894 133.891 29.8373 129.633 35.9907 124.864C48.295 115.329 66.1913 103.775 86.763 92.4654C107.335 81.1555 126.679 72.2354 141.323 66.9551C148.646 64.3145 154.785 62.5872 159.311 61.9245C161.575 61.593 163.423 61.5303 164.808 61.7462C166.198 61.9627 167.08 62.4517 167.483 63.1841Z" stroke="#8584F6" stroke-opacity="0.14" stroke-width="0.394917"/>
<path opacity="0.202532" d="M166.718 62.2202C167.165 63.0073 167.147 64.0723 166.635 65.4181C166.125 66.7613 165.136 68.3499 163.7 70.1497C160.829 73.7479 156.205 78.1528 150.177 83.0725C138.125 92.9097 120.491 104.784 100.131 116.361C79.7718 127.937 60.5497 137.02 45.9329 142.346C38.6232 145.01 32.4737 146.732 27.9135 147.359C25.6326 147.672 23.7615 147.71 22.3463 147.462C20.9282 147.213 20.0035 146.684 19.5559 145.897C19.1083 145.11 19.127 144.045 19.6383 142.699C20.1487 141.356 21.138 139.768 22.5739 137.968C25.4445 134.37 30.0682 129.965 36.0954 125.045C48.1476 115.208 65.7821 103.334 86.1416 91.7572C106.501 80.1807 125.723 71.0983 140.34 65.7714C147.65 63.1074 153.8 61.3859 158.36 60.7589C160.641 60.4453 162.512 60.4074 163.927 60.6557C165.345 60.9044 166.27 61.433 166.718 62.2202Z" stroke="#8584F6" stroke-opacity="0.14" stroke-width="0.394917"/>
<path opacity="0.21519" d="M165.926 61.2448C166.419 62.0847 166.444 63.2064 165.985 64.6075C165.527 66.0076 164.593 67.6579 163.216 69.523C160.463 73.2517 155.968 77.8009 150.071 82.8709C138.281 93.0088 120.918 105.204 100.779 117.05C80.6386 128.896 61.5428 138.146 46.9529 143.524C39.6564 146.214 33.496 147.933 28.8993 148.527C26.6002 148.824 24.7042 148.838 23.2576 148.559C21.8101 148.279 20.8418 147.712 20.3477 146.873C19.8537 146.033 19.8285 144.911 20.2875 143.509C20.7461 142.109 21.6796 140.459 23.0565 138.594C25.8094 134.865 30.305 130.316 36.2015 125.246C47.9921 115.108 65.355 102.912 85.495 91.0662C105.635 79.2201 124.73 69.9712 139.32 64.5923C146.616 61.9024 152.777 60.1836 157.373 59.5895C159.672 59.2923 161.569 59.2784 163.015 59.5578C164.463 59.8376 165.431 60.4049 165.926 61.2448Z" stroke="#8584F6" stroke-opacity="0.14" stroke-width="0.394917"/>
<path opacity="0.227848" d="M165.107 60.2602C165.649 61.1511 165.721 62.3282 165.316 63.7843C164.911 65.2403 164.035 66.9513 162.72 68.8806C160.089 72.7381 155.727 77.4309 149.966 82.6502C138.447 93.087 121.365 105.603 101.452 117.721C81.5384 129.839 62.5731 139.261 48.0102 144.696C40.7275 147.415 34.5552 149.133 29.9203 149.697C27.6022 149.979 25.6801 149.97 24.2009 149.661C22.7215 149.351 21.7091 148.747 21.167 147.856C20.625 146.965 20.553 145.788 20.9579 144.332C21.3628 142.876 22.239 141.165 23.5545 139.236C26.1851 135.379 30.5469 130.686 36.3078 125.467C47.8273 115.03 64.9089 102.513 84.8221 90.395C104.735 78.2767 123.701 68.8562 138.264 63.4204C145.547 60.702 151.719 58.9841 156.354 58.4202C158.672 58.1382 160.594 58.1458 162.073 58.4552C163.552 58.7646 164.565 59.3695 165.107 60.2602Z" stroke="#8584F6" stroke-opacity="0.14" stroke-width="0.394917"/>
<path opacity="0.240506" d="M164.261 59.27C164.853 60.2098 164.974 61.4406 164.625 62.9507C164.276 64.4615 163.461 66.232 162.208 68.2245C159.704 72.2086 155.48 77.0429 149.859 82.4104C138.62 93.1435 121.829 105.98 102.15 118.372C82.4711 130.764 63.6394 140.36 49.1037 145.858C41.8344 148.607 35.6493 150.328 30.9744 150.864C28.6364 151.133 26.6874 151.103 25.174 150.765C23.6614 150.427 22.6038 149.786 22.0119 148.846C21.4201 147.907 21.2991 146.676 21.6479 145.166C21.9971 143.655 22.8127 141.884 24.0649 139.892C26.5688 135.908 30.7933 131.073 36.4138 125.706C47.6527 114.973 64.4437 102.136 84.1226 89.7438C103.802 77.3517 122.634 67.7562 137.169 62.2586C144.439 59.5093 150.624 57.7885 155.299 57.252C157.637 56.9837 159.586 57.0133 161.099 57.3512C162.612 57.6891 163.669 58.3301 164.261 59.27Z" stroke="#8584F6" stroke-opacity="0.14" stroke-width="0.394917"/>
<path opacity="0.253165" d="M163.39 58.2763C164.033 59.2634 164.206 60.5471 163.915 62.1104C163.623 63.6748 162.869 65.5029 161.683 67.5572C159.31 71.6657 155.228 76.6402 149.753 82.1544C138.804 93.1806 122.313 106.337 102.875 119.004C83.4382 131.671 64.7439 141.444 50.2354 147.008C42.9797 149.791 36.7807 151.516 32.0638 152.028C29.705 152.284 27.7277 152.236 26.1787 151.871C24.6309 151.506 23.5273 150.829 22.884 149.841C22.2409 148.854 22.0674 147.572 22.3585 146.009C22.6499 144.444 23.404 142.615 24.5907 140.56C26.9638 136.452 31.046 131.478 36.5214 125.964C47.4703 114.938 63.9605 101.782 83.3978 89.1154C102.835 76.4483 121.53 66.6744 136.039 61.1104C143.294 58.3279 149.493 56.6017 154.21 56.0899C156.568 55.8339 158.546 55.8831 160.095 56.2483C161.642 56.6132 162.746 57.2893 163.39 58.2763Z" stroke="#8584F6" stroke-opacity="0.14" stroke-width="0.394917"/>
<path opacity="0.265823" d="M162.491 57.2789C163.188 58.3113 163.415 59.6447 163.184 61.2599C162.952 62.8768 162.262 64.7626 161.143 66.8779C158.905 71.1082 154.971 76.2199 149.645 81.8788C138.995 93.1946 122.814 106.668 103.625 119.61C84.4367 132.553 65.8834 142.508 51.4021 148.142C44.16 150.96 37.9465 152.693 33.1859 153.183C30.8055 153.428 28.7987 153.361 27.2127 152.97C25.6284 152.58 24.4772 151.87 23.7809 150.837C23.0845 149.805 22.8575 148.471 23.0888 146.856C23.3204 145.239 24.0102 143.354 25.1291 141.238C27.3669 137.008 31.3017 131.896 36.6275 126.237C47.277 114.922 63.4577 101.449 82.6462 88.5064C101.835 75.5639 120.389 65.6086 134.87 59.9739C142.112 57.156 148.326 55.4228 153.086 54.9328C155.467 54.6879 157.474 54.7547 159.06 55.1457C160.644 55.5364 161.795 56.2465 162.491 57.2789Z" stroke="#8584F6" stroke-opacity="0.14" stroke-width="0.394917"/>
<path opacity="0.278481" d="M161.569 56.2838C163.073 58.4375 162.698 61.8261 160.591 66.192C158.493 70.5415 154.71 75.7886 149.539 81.5902C139.198 93.1912 123.336 106.978 104.403 120.195C85.4699 133.413 67.0609 143.553 52.6067 149.263C45.3783 152.118 39.1489 153.861 34.3429 154.332C29.5186 154.804 26.2083 153.988 24.7047 151.835C23.2011 149.681 23.5757 146.292 25.6819 141.926C27.7801 137.577 31.5629 132.329 36.7344 126.528C47.0754 114.927 62.9384 101.14 81.8713 87.922C100.804 74.7042 119.213 64.5646 133.667 58.8551C140.895 55.9998 147.124 54.2571 151.93 53.7864C156.755 53.3137 160.066 54.1301 161.569 56.2838Z" stroke="#8584F6" stroke-opacity="0.14" stroke-width="0.394917"/>
<path opacity="0.291139" d="M160.62 55.2895C162.236 57.5253 161.986 61.0184 160.025 65.4983C158.071 69.9639 154.444 75.343 149.432 81.2848C139.408 93.1663 123.874 107.264 105.204 120.756C86.5334 134.249 68.2729 144.574 53.846 150.363C46.6311 153.257 40.3851 155.013 35.5316 155.467C30.6629 155.923 27.2684 155.064 25.6526 152.828C24.037 150.592 24.2861 147.099 26.2468 142.62C28.2014 138.154 31.8287 132.775 36.8414 126.833C46.8648 114.951 62.3993 100.854 81.0694 87.3611C99.7396 73.8685 118 63.5431 132.427 57.7549C139.642 54.8603 145.887 53.105 150.741 52.6506C155.609 52.1948 159.005 53.0538 160.62 55.2895Z" stroke="#8584F6" stroke-opacity="0.14" stroke-width="0.394917"/>
<path opacity="0.303797" d="M159.648 54.3004C161.38 56.6146 161.259 60.2083 159.448 64.7986C157.641 69.3773 154.175 74.8857 149.325 80.9652C139.628 93.1219 124.431 107.527 106.03 121.293C87.629 135.059 69.5198 145.572 55.12 151.442C47.9188 154.378 41.6558 156.149 36.7533 156.589C31.8383 157.031 28.3569 156.132 26.6256 153.818C24.8943 151.504 25.0139 147.909 26.8253 143.319C28.632 138.74 32.0989 133.232 36.9483 127.152C46.6453 114.996 61.8429 100.591 80.2437 86.8249C98.6445 73.0588 116.754 62.5459 131.153 56.6753C138.355 53.7395 144.618 51.9687 149.52 51.5281C154.435 51.0863 157.917 51.9862 159.648 54.3004Z" stroke="#8584F6" stroke-opacity="0.14" stroke-width="0.394917"/>
<path opacity="0.316456" d="M158.651 53.3173C160.502 55.7062 160.515 59.3975 158.857 64.0959C157.202 68.7843 153.901 74.419 149.219 80.6331C139.857 93.0592 125.004 107.766 106.879 121.803C88.7544 135.841 70.8001 146.543 56.4275 152.5C49.2399 155.479 42.9584 157.266 38.0052 157.695C33.0415 158.126 29.4715 157.189 27.6214 154.8C25.7714 152.411 25.7574 148.721 27.4157 144.023C29.0706 139.334 32.372 133.699 37.0538 127.485C46.4157 115.059 61.268 100.352 79.3928 86.3142C97.5176 72.2765 115.472 61.575 129.845 55.6186C137.033 52.6399 143.314 50.8528 148.267 50.4232C153.231 49.9926 156.801 50.9286 158.651 53.3173Z" stroke="#8584F6" stroke-opacity="0.14" stroke-width="0.394917"/>
<path opacity="0.329114" d="M157.633 52.3428C159.605 54.8025 159.757 58.587 158.256 63.3896C156.756 68.1842 153.623 73.9415 149.113 80.2872C140.095 92.9762 125.596 107.981 107.754 122.288C89.9113 136.595 72.1144 147.485 57.7687 153.531C50.5946 156.554 44.294 158.361 39.2881 158.782C34.2739 159.204 30.613 158.233 28.6407 155.774C26.6684 153.314 26.5164 149.529 28.0181 144.727C29.5173 139.932 32.6503 134.175 37.1604 127.829C46.179 115.14 60.677 100.136 78.5193 85.8289C96.3619 71.5221 114.159 60.6311 128.505 54.5858C135.679 51.5626 141.98 49.7557 146.986 49.3344C152 48.9124 155.661 49.8832 157.633 52.3428Z" stroke="#8584F6" stroke-opacity="0.14" stroke-width="0.394917"/>
<path opacity="0.341772" d="M156.593 51.3795C158.69 53.906 158.984 57.7801 157.643 62.6833C156.303 67.5804 153.343 73.4574 149.009 79.9311C140.342 92.8762 126.205 108.172 108.651 122.745C91.0966 137.318 73.4602 148.399 59.1412 154.537C51.9805 157.606 45.6599 159.433 40.5999 159.849C35.5333 160.265 31.7792 159.263 29.6817 156.737C27.5842 154.211 27.29 150.336 28.6315 145.432C29.9712 140.535 32.9304 134.658 37.2647 128.185C45.9319 115.24 60.0694 99.9433 77.6236 85.3703C95.1776 70.7975 112.814 59.7165 127.132 53.5793C134.293 50.5102 140.615 48.6822 145.675 48.2664C150.741 47.8503 154.495 48.853 156.593 51.3795Z" stroke="#8584F6" stroke-opacity="0.14" stroke-width="0.394917"/>
<path opacity="0.35443" d="M155.531 50.4299C157.756 53.0193 158.197 56.9794 157.019 61.9803C155.842 66.9761 153.059 72.9676 148.905 79.5656C140.597 92.7597 126.829 108.341 109.569 123.177C92.3089 138.012 74.8356 149.283 60.5431 155.515C53.3959 158.632 47.0542 160.483 41.9385 160.896C36.8175 161.309 32.969 160.278 30.7434 157.689C28.5177 155.099 28.0767 151.14 29.2544 146.139C30.431 141.143 33.214 135.152 37.3686 128.553C45.6767 115.359 59.4447 99.7774 76.7049 84.9417C93.965 70.1062 111.438 58.8356 125.73 52.6038C132.877 49.4875 139.219 47.6362 144.335 47.2234C149.456 46.8102 153.305 47.8405 155.531 50.4299Z" stroke="#8584F6" stroke-opacity="0.14" stroke-width="0.394917"/>
<path opacity="0.367089" d="M154.449 49.4929C156.806 52.1412 157.396 56.1826 156.385 61.2767C155.375 66.3671 152.772 72.4695 148.801 79.1881C140.859 92.6234 127.469 108.484 110.508 123.578C93.5473 138.672 76.2401 150.132 61.974 156.461C54.8398 159.626 48.4766 161.503 43.3034 161.915C38.1264 162.328 34.1808 161.273 31.8239 158.624C29.4671 155.976 28.8763 151.934 29.8871 146.84C30.8971 141.75 33.5 135.647 37.4714 128.928C45.4131 115.493 58.8038 99.6329 75.7644 84.5386C92.7251 69.4443 110.032 57.9847 124.298 51.6559C131.432 48.4911 137.796 46.614 142.969 46.2015C148.146 45.7888 152.092 46.8446 154.449 49.4929Z" stroke="#8584F6" stroke-opacity="0.14" stroke-width="0.394917"/>
<path opacity="0.379747" d="M153.35 48.5726C155.84 51.2755 156.584 55.3944 155.744 60.5782C154.904 65.759 152.486 71.9682 148.701 78.8032C141.133 92.4716 128.124 108.603 111.468 123.952C94.8119 139.3 77.6732 150.949 63.433 157.377C56.3119 160.591 49.9256 162.495 44.6935 162.91C39.4586 163.325 35.4146 162.247 32.9239 159.544C30.4333 156.841 29.6885 152.722 30.529 147.539C31.3691 142.358 33.7885 136.149 37.5731 129.314C45.1414 115.645 58.1486 99.5136 74.8047 84.1651C91.461 68.8165 108.601 57.1682 122.841 50.7401C129.962 47.5259 136.347 45.6216 141.579 45.207C146.814 44.7921 150.859 45.8698 153.35 48.5726Z" stroke="#8584F6" stroke-opacity="0.14" stroke-width="0.394917"/>
<path opacity="0.392405" d="M152.233 47.6709C154.86 50.4244 155.761 54.6161 155.093 59.8851C154.426 65.152 152.195 71.4634 148.6 78.4107C141.412 92.3037 128.794 108.7 112.447 124.298C96.1003 139.895 79.1309 151.73 64.9163 158.259C57.8081 161.524 51.3984 163.458 46.106 163.877C40.8117 164.297 36.6672 163.2 34.04 160.447C31.4128 157.693 30.5109 153.501 31.1782 148.232C31.8452 142.965 34.077 136.654 37.6717 129.706C44.8601 115.813 57.4781 99.4181 73.8249 83.8204C90.1719 68.2226 107.141 56.3867 121.356 49.8575C128.464 46.5926 134.873 44.6597 140.165 44.2403C145.46 43.8207 149.606 44.9174 152.233 47.6709Z" stroke="#8584F6" stroke-opacity="0.14" stroke-width="0.394917"/>
<path opacity="0.405063" d="M151.101 46.7872C153.867 49.5871 154.929 53.8477 154.438 59.1978C153.947 64.5466 151.905 70.9561 148.504 78.0112C141.701 92.12 129.479 108.771 113.446 124.612C97.4122 140.454 80.6149 152.475 66.4251 159.107C59.3295 162.424 52.8959 164.388 47.5416 164.815C42.186 165.241 37.9384 164.128 35.1721 161.328C32.4061 158.528 31.3444 154.268 31.8355 148.918C32.3266 143.57 34.3685 137.16 37.7701 130.105C44.5727 115.996 56.7953 99.3448 72.8287 83.5033C88.8621 67.6619 105.659 55.6412 119.849 49.0091C126.944 45.6927 133.378 43.7281 138.732 43.3015C144.088 42.8748 148.335 43.9877 151.101 46.7872Z" stroke="#8584F6" stroke-opacity="0.14" stroke-width="0.394917"/>
<path opacity="0.417722" d="M149.955 45.9257C152.863 48.7676 154.087 53.0922 153.775 58.5189C153.463 63.945 151.614 70.448 148.408 77.6064C141.997 91.9218 130.176 108.819 114.46 124.899C98.7442 140.978 82.1213 153.182 67.9562 159.919C60.8728 163.288 54.4132 165.285 48.9956 165.721C43.5775 166.157 39.2267 165.031 36.3191 162.189C33.4114 159.347 32.1861 155.023 32.4985 149.597C32.8108 144.171 34.6606 137.668 37.8664 130.509C44.2775 116.194 56.0981 99.2958 71.8141 83.2164C87.5301 67.1371 104.153 54.9332 118.319 48.1967C125.402 44.8282 131.86 42.8309 137.278 42.3946C142.696 41.9583 147.047 43.0837 149.955 45.9257Z" stroke="#8584F6" stroke-opacity="0.14" stroke-width="0.394917"/>
<path opacity="0.43038" d="M148.796 45.0874C151.847 47.9672 153.238 52.3508 153.107 57.8494C152.976 63.3483 151.322 69.9398 148.315 77.1969C142.3 91.7097 130.885 108.845 115.49 125.156C100.095 141.467 83.6469 153.853 69.5055 160.695C62.4342 164.116 55.9491 166.148 50.467 166.596C44.985 167.044 40.5286 165.909 37.4774 163.029C34.4263 160.15 33.0359 155.766 33.1669 150.267C33.298 144.768 34.9509 138.176 37.9584 130.919C43.9728 116.406 55.388 99.2709 70.7831 82.9598C86.1782 66.6488 102.626 54.2634 116.768 47.4212C123.839 43.9998 130.325 41.9691 135.807 41.5208C141.289 41.0726 145.745 42.2076 148.796 45.0874Z" stroke="#8584F6" stroke-opacity="0.14" stroke-width="0.394917"/>
<path opacity="0.443038" d="M147.627 44.2717C150.823 47.1853 152.382 51.6242 152.434 57.1907C152.487 62.7576 151.032 69.4329 148.225 76.7837C142.612 91.4841 131.606 108.848 116.535 125.384C101.464 141.92 85.1922 154.485 71.0739 161.433C64.0142 164.908 57.5022 166.974 51.9543 167.437C46.4067 167.9 41.8434 166.757 38.6466 163.844C35.45 160.93 33.8913 156.492 33.8388 150.926C33.7863 145.359 35.2414 138.684 38.0482 131.333C43.6615 116.633 54.6661 99.2683 69.7375 82.7321C84.8088 66.1959 101.081 53.6324 115.199 46.6836C122.259 43.2089 128.771 41.1426 134.319 40.68C139.866 40.2174 144.43 41.3582 147.627 44.2717Z" stroke="#8584F6" stroke-opacity="0.14" stroke-width="0.394917"/>
<path opacity="0.455696" d="M146.449 43.4831C149.793 46.4262 151.522 50.9149 151.76 56.5443C151.998 62.1745 150.743 68.928 148.139 76.3675C142.931 91.2459 132.339 108.83 117.594 125.584C102.849 142.339 86.7537 155.078 72.6577 162.134C65.6093 165.662 59.0701 167.766 53.4553 168.245C47.8412 168.724 43.1693 167.579 39.8251 164.636C36.4809 161.693 34.7518 157.204 34.5137 151.575C34.2756 145.945 35.53 139.191 38.1342 131.751C43.3422 116.873 53.9334 99.2893 68.6783 82.535C83.4235 65.7805 99.5191 53.0405 113.615 45.9843C120.664 42.456 127.203 40.3535 132.818 39.8743C138.432 39.3952 143.104 40.54 146.449 43.4831Z" stroke="#8584F6" stroke-opacity="0.14" stroke-width="0.394917"/>
<path opacity="0.468354" d="M145.262 42.7184C148.756 45.687 150.657 50.222 151.083 55.91C151.508 61.5988 150.456 68.4259 148.056 75.9493C143.257 90.9955 133.083 108.789 118.666 125.754C104.249 142.719 88.3306 155.631 74.2558 162.795C67.2182 166.377 60.6504 168.518 54.9674 169.016C49.2854 169.514 44.5029 168.369 41.0096 165.4C37.5164 162.432 35.6154 157.897 35.1899 152.209C34.7643 146.52 35.8171 139.693 38.2168 132.17C43.0161 117.124 53.1902 99.33 67.607 82.3647C82.0238 65.3994 97.9421 52.4881 112.017 45.324C119.054 41.7418 125.622 39.6013 131.305 39.1033C136.987 38.6055 141.769 39.75 145.262 42.7184Z" stroke="#8584F6" stroke-opacity="0.14" stroke-width="0.394917"/>
<path opacity="0.481013" d="M144.072 41.9813C147.716 44.9712 149.792 49.5469 150.406 55.2885C151.021 61.0313 150.171 67.9275 147.978 75.5298C143.59 90.7339 133.836 108.726 119.749 125.895C105.662 143.063 89.9205 156.144 75.8659 163.417C68.8384 167.053 62.2409 169.233 56.4887 169.751C50.7376 170.27 45.8452 169.127 42.2012 166.137C38.5572 163.147 36.4808 158.572 35.8663 152.831C35.2516 147.088 36.1009 140.192 38.2947 132.589C42.6824 117.385 52.4371 99.3925 66.5242 82.2236C80.6113 65.055 96.352 51.9748 110.406 44.7024C117.434 41.0661 124.031 38.8864 129.784 38.3677C135.535 37.8491 140.428 38.9914 144.072 41.9813Z" stroke="#8584F6" stroke-opacity="0.14" stroke-width="0.394917"/>
<path opacity="0.493671" d="M142.878 41.2715C146.674 44.2788 148.926 48.8908 149.731 54.6813C150.536 60.4733 149.89 67.4329 147.904 75.109C143.93 90.4608 134.598 108.642 120.841 126.007C107.085 143.371 91.5211 156.616 77.4856 163.996C70.4677 167.687 63.8403 169.907 58.0178 170.449C52.1967 170.99 47.1919 169.853 43.3959 166.846C39.5999 163.839 37.3476 159.226 36.5426 153.436C35.7375 147.644 36.3828 140.684 38.3696 133.008C42.3432 117.656 51.6754 99.4747 65.4317 82.1103C79.1881 64.7459 94.7521 51.5014 108.788 44.1207C115.805 40.4303 122.433 38.2098 128.255 37.6683C134.077 37.1271 139.082 38.2643 142.878 41.2715Z" stroke="#8584F6" stroke-opacity="0.14" stroke-width="0.394917"/>
<path opacity="0.506329" d="M141.681 40.5901C149.58 46.6316 151.398 59.1807 147.836 74.689C144.278 90.1785 135.368 108.539 121.942 126.091C108.517 143.644 93.1298 157.049 79.1122 164.538C65.0772 172.036 52.4901 173.567 44.5914 167.526C36.6927 161.484 34.8752 148.935 38.4373 133.427C41.9951 117.937 50.9047 99.577 64.3299 82.0249C77.7552 64.4726 93.1429 51.0665 107.161 43.5777C121.196 36.0799 133.783 34.5486 141.681 40.5901Z" stroke="#8584F6" stroke-opacity="0.14" stroke-width="0.394917"/>
<path opacity="0.518987" d="M140.487 39.9398C148.693 46.0001 150.917 58.6389 147.773 74.2727C144.633 89.8895 136.146 108.419 123.052 126.15C109.957 143.882 94.7457 157.444 80.7444 165.041C66.7276 172.645 53.9938 174.238 45.7872 168.178C37.5806 162.118 35.3566 149.479 38.5007 133.845C41.6413 118.229 50.1269 99.6996 63.2212 81.9678C76.3156 64.2358 91.5282 50.6737 105.53 43.0773C119.547 35.4725 132.28 33.8795 140.487 39.9398Z" stroke="#8584F6" stroke-opacity="0.14" stroke-width="0.394917"/>
<path opacity="0.531646" d="M139.293 39.3172C147.81 45.3889 150.442 58.1075 147.716 73.857C144.993 89.5909 136.931 108.278 124.167 126.181C111.403 144.084 96.3647 157.799 82.3779 165.502C68.3773 173.213 55.4954 174.871 46.9792 168.799C38.4632 162.728 35.8309 150.009 38.5564 134.26C41.2794 118.526 49.342 99.838 62.1061 81.9347C74.8701 64.0317 89.908 50.318 103.895 42.6145C117.895 34.9036 130.777 33.2459 139.293 39.3172Z" stroke="#8584F6" stroke-opacity="0.14" stroke-width="0.394917"/>
<path opacity="0.544304" d="M138.105 38.7265C146.932 44.8023 149.974 57.5906 147.667 73.4456C145.362 89.2868 137.723 108.122 125.288 126.189C112.853 144.255 97.9866 158.116 84.0128 165.926C70.0267 173.742 56.9954 175.467 48.1682 169.391C39.3409 163.315 36.299 150.527 38.6062 134.672C40.9113 118.831 48.5502 99.9953 60.9854 81.9289C73.4206 63.8625 88.2868 50.0015 102.261 42.1919C116.247 34.3757 129.278 32.6507 138.105 38.7265Z" stroke="#8584F6" stroke-opacity="0.14" stroke-width="0.394917"/>
<path opacity="0.556962" d="M136.924 38.166C146.063 44.2394 149.515 57.0883 147.626 73.039C145.738 88.9776 138.521 107.95 126.413 126.171C114.305 144.392 99.609 158.395 85.6462 166.31C71.6727 174.231 58.4899 176.026 49.3505 169.953C40.211 163.88 36.7587 151.03 38.648 135.079C40.5358 119.141 47.7531 100.168 59.8611 81.9471C71.9691 63.7262 86.6646 49.7229 100.627 41.8082C114.601 33.8875 127.785 32.0928 136.924 38.166Z" stroke="#8584F6" stroke-opacity="0.14" stroke-width="0.394917"/>
<path opacity="0.56962" d="M135.75 37.6344C145.202 43.6985 149.064 56.5993 147.592 72.6365C146.12 88.6625 139.323 107.762 127.54 126.129C115.756 144.496 101.229 158.637 87.2753 166.655C73.3119 174.679 59.9755 176.546 50.5231 170.482C41.0708 164.418 37.2095 151.518 38.6821 135.481C40.1537 119.455 46.9504 100.355 58.7336 81.9875C70.5168 63.6204 85.0448 49.4804 98.9987 41.4621C112.962 33.4383 126.298 31.5704 135.75 37.6344Z" stroke="#8584F6" stroke-opacity="0.14" stroke-width="0.394917"/>
<path opacity="0.582278" d="M134.587 37.1358C144.353 43.1846 148.624 56.1268 147.566 72.2405C146.509 88.3448 140.129 107.562 128.668 126.067C117.207 144.572 102.844 158.844 88.8969 166.964C74.9415 175.089 61.4519 177.031 51.6861 170.982C41.9202 164.934 37.6486 151.991 38.7062 135.877C39.7631 119.773 46.1426 100.556 57.6038 82.0518C69.0652 63.547 83.4282 49.2742 97.3753 41.1538C111.331 33.0285 124.821 31.0871 134.587 37.1358Z" stroke="#8584F6" stroke-opacity="0.14" stroke-width="0.394917"/>
<path opacity="0.594937" d="M133.436 36.6657C143.515 42.6932 148.195 55.6696 147.55 71.8512C146.906 88.024 140.94 107.348 129.798 125.981C118.655 144.615 104.454 159.015 90.5113 167.235C76.5611 175.46 62.9151 177.478 52.8355 171.451C42.7562 165.423 38.0772 152.447 38.722 136.266C39.3665 120.093 45.3312 100.768 56.4742 82.1343C67.6171 63.5006 81.8183 49.1023 95.761 40.8815C109.711 32.6565 123.356 30.6384 133.436 36.6657Z" stroke="#8584F6" stroke-opacity="0.14" stroke-width="0.394917"/>
<path opacity="0.607595" d="M132.301 36.2273C142.694 42.2282 147.781 55.2295 147.546 71.4696C147.311 87.7023 141.757 107.124 130.929 125.878C120.1 144.633 106.057 159.153 92.1161 167.472C78.1687 175.795 64.3658 177.89 53.9727 171.889C43.5795 165.888 38.4928 152.887 38.7277 136.647C38.9625 120.414 44.5166 100.992 55.3451 82.2379C66.1736 63.4834 80.2166 48.9632 94.1575 40.6442C108.105 32.3214 121.908 30.2266 132.301 36.2273Z" stroke="#8584F6" stroke-opacity="0.14" stroke-width="0.394917"/>
<path opacity="0.620253" d="M131.181 35.8193C141.888 41.7884 147.38 54.8078 147.552 71.0981C147.724 87.3819 142.576 106.891 132.057 125.757C121.539 144.624 107.65 159.26 93.7083 167.675C79.7608 176.093 65.7985 178.267 55.092 172.298C44.3859 166.328 38.8942 153.309 38.7224 137.019C38.5507 120.735 43.6986 101.227 54.2171 82.36C64.7357 63.4933 78.6241 48.8576 92.566 40.4424C106.513 32.024 120.475 29.8506 131.181 35.8193Z" stroke="#8584F6" stroke-opacity="0.14" stroke-width="0.394917"/>
<path opacity="0.632911" d="M130.08 35.4412C141.099 41.3738 146.993 54.4024 147.568 70.7343C148.142 87.0609 143.396 106.649 133.183 125.62C122.969 144.59 109.23 159.335 95.2842 167.844C81.3336 176.356 67.2121 178.609 56.193 172.676C45.1739 166.744 39.2803 153.714 38.7056 137.382C38.131 121.056 42.8765 101.469 53.0903 82.498C63.3041 63.5272 77.0433 48.7814 90.9892 40.2725C104.94 31.761 119.061 29.5087 130.08 35.4412Z" stroke="#8584F6" stroke-opacity="0.14" stroke-width="0.394917"/>
<path opacity="0.64557" d="M128.999 35.0932C140.33 40.9854 146.623 54.017 147.597 70.3829C148.57 86.7442 144.22 106.401 134.305 125.467C124.391 144.534 110.798 159.383 96.8449 167.983C82.8881 176.585 68.6055 178.917 57.2745 173.025C45.9436 167.133 39.6493 154.101 38.6759 137.735C37.7028 121.374 42.0523 101.718 51.9667 82.6514C61.8813 63.5848 75.4748 48.7349 89.4277 40.1351C103.385 31.5328 117.668 29.2011 128.999 35.0932Z" stroke="#8584F6" stroke-opacity="0.14" stroke-width="0.394917"/>
<path opacity="0.658228" d="M127.939 34.7736C139.581 40.6214 146.272 53.6494 147.639 70.0417C149.006 86.4301 145.046 106.147 135.425 125.301C125.804 144.456 112.35 159.405 98.3871 168.092C84.4206 176.782 69.9747 179.193 58.333 173.345C46.6913 167.497 40.0004 154.469 38.6329 138.077C37.2658 121.689 41.2259 101.971 50.8474 82.8168C60.4688 63.6626 73.9218 48.7143 87.8849 40.0265C101.851 31.3366 116.297 28.926 127.939 34.7736Z" stroke="#8584F6" stroke-opacity="0.14" stroke-width="0.394917"/>
<path opacity="0.670886" d="M126.904 34.4812C138.855 40.2816 145.939 53.3001 147.695 69.7118C149.451 86.1201 145.875 105.889 136.54 125.123C127.205 144.357 113.887 159.398 99.91 168.171C85.9302 176.946 71.3204 179.435 59.3691 173.635C47.4178 167.834 40.334 154.816 38.5777 138.405C36.8218 121.996 40.3973 102.227 49.7321 82.9926C59.067 63.7585 72.3857 48.7184 86.3626 39.9456C100.342 31.171 114.953 28.6809 126.904 34.4812Z" stroke="#8584F6" stroke-opacity="0.14" stroke-width="0.394917"/>
<path opacity="0.683544" d="M125.893 34.218C138.153 39.9681 145.626 52.9713 147.766 69.3956C149.905 85.8173 146.706 105.631 137.651 124.937C128.596 144.243 115.406 159.37 101.411 168.225C87.4146 177.081 72.6383 179.648 60.3788 173.898C48.1195 168.148 40.6469 155.145 38.5074 138.721C36.3682 122.299 39.5669 102.486 48.6222 83.1796C57.6775 63.8733 70.8671 48.746 84.8616 39.8916C98.8582 31.0359 113.634 28.4681 125.893 34.218Z" stroke="#8584F6" stroke-opacity="0.14" stroke-width="0.394917"/>
<path opacity="0.696203" d="M124.911 33.9827C137.477 39.6804 145.334 52.6638 147.851 69.0946C150.367 85.5231 147.538 105.373 138.755 124.743C129.972 144.114 116.905 159.322 102.89 168.254C88.8719 177.188 73.9283 179.833 61.3622 174.135C48.7962 168.437 40.9387 155.454 38.4219 139.023C35.9055 122.595 38.7348 102.745 47.5179 83.3745C56.301 64.0038 69.3675 48.796 83.3832 39.8635C97.4009 30.9298 112.344 28.2849 124.911 33.9827Z" stroke="#8584F6" stroke-opacity="0.14" stroke-width="0.394917"/>
<path opacity="0.708861" d="M123.956 33.773C136.827 39.4168 145.064 52.3752 147.952 68.8065C150.84 85.2363 148.371 105.115 139.852 124.543C131.334 143.971 118.384 159.253 104.343 168.26C90.3004 177.268 75.1881 179.988 62.3173 174.344C49.4464 168.7 41.2091 155.742 38.3212 139.311C35.4337 122.881 37.9007 103.002 46.4196 83.5742C54.9386 64.1461 67.8893 48.8636 81.9305 39.8568C95.9731 30.8492 111.085 28.1293 123.956 33.773Z" stroke="#8584F6" stroke-opacity="0.14" stroke-width="0.394917"/>
<path opacity="0.721519" d="M123.031 33.5886C136.205 39.1771 144.818 52.1068 148.07 68.5336C151.322 84.9592 149.207 104.861 140.944 124.339C132.681 143.817 119.84 159.169 105.77 168.246C91.6979 177.323 76.4155 180.116 63.2418 174.528C50.0682 168.939 41.4556 156.009 38.2035 139.583C34.9516 123.157 37.066 103.255 45.3291 83.7765C53.5922 64.2985 66.4329 48.9475 80.5036 39.8705C94.5753 30.7929 109.858 28.0001 123.031 33.5886Z" stroke="#8584F6" stroke-opacity="0.14" stroke-width="0.394917"/>
<path opacity="0.734177" d="M122.138 33.4302C135.613 38.9633 144.595 51.8614 148.204 68.2792C151.814 84.696 150.044 104.613 142.028 124.134C134.012 143.656 121.274 159.069 107.17 168.213C93.0642 177.356 77.6102 180.219 64.1356 174.686C50.6608 169.153 41.6777 156.256 38.0682 139.838C34.459 123.421 36.2289 103.504 44.2448 83.9822C52.2607 64.4611 64.9984 49.0478 79.103 39.9047C93.2086 30.761 108.664 27.8972 122.138 33.4302Z" stroke="#8584F6" stroke-opacity="0.14" stroke-width="0.394917"/>
<path opacity="0.746835" d="M121.277 33.2955C135.051 38.7729 144.398 51.6367 148.357 68.041C152.317 84.4448 150.883 104.372 143.105 123.93C135.328 143.488 122.685 158.958 108.541 168.163C94.3974 177.368 78.7689 180.299 64.9954 174.822C51.222 169.344 41.8756 156.481 37.9161 140.076C33.9568 123.673 35.3904 103.745 43.1682 84.1872C50.9459 64.6294 63.589 49.1597 77.7323 39.9549C91.876 30.75 107.504 27.8182 121.277 33.2955Z" stroke="#8584F6" stroke-opacity="0.14" stroke-width="0.394917"/>
<path opacity="0.759494" d="M120.451 33.1841C134.521 38.6066 144.227 51.4337 148.529 67.821C152.83 84.208 151.722 104.14 144.173 123.728C136.624 143.316 124.069 158.836 109.883 168.098C95.6959 177.36 79.8917 180.356 65.8216 174.934C51.7514 169.511 42.0459 156.683 37.7441 140.296C33.4424 123.909 34.5499 103.977 42.0989 84.3896C49.6479 64.8016 62.2032 49.2811 76.3898 40.0193C90.5767 30.7575 106.381 27.7616 120.451 33.1841Z" stroke="#8584F6" stroke-opacity="0.14" stroke-width="0.394917"/>
<path opacity="0.772152" d="M119.66 33.095C134.024 38.4639 144.083 51.2537 148.719 67.6208C153.356 83.9878 152.564 103.919 145.234 123.531C137.904 143.143 125.429 158.707 111.194 168.021C96.9594 177.335 80.9783 180.391 66.6139 175.022C52.2494 169.654 42.1899 156.864 37.5535 140.497C32.9171 124.13 33.7087 104.199 41.0387 84.5871C48.3687 64.9754 60.844 49.4109 75.0787 40.0971C89.3136 30.7832 105.296 27.7262 119.66 33.095Z" stroke="#8584F6" stroke-opacity="0.14" stroke-width="0.394917"/>
<path opacity="0.78481" d="M118.905 33.0271C133.561 38.344 143.967 51.0952 148.93 67.4397C153.893 83.784 153.407 103.71 146.287 123.339C139.165 142.969 126.762 158.572 112.474 167.933C98.186 177.294 82.0249 180.407 67.3684 175.09C52.7119 169.773 42.306 157.022 37.3431 140.677C32.3802 124.333 32.8658 104.407 39.9869 84.7769C47.108 65.1475 59.5112 49.5451 73.7991 40.1844C88.087 30.8236 104.248 27.7102 118.905 33.0271Z" stroke="#8584F6" stroke-opacity="0.14" stroke-width="0.394917"/>
<path opacity="0.797468" d="M118.187 32.9802C133.133 38.2477 143.88 50.96 149.161 67.2795C154.442 83.5992 154.252 103.516 147.33 123.158C140.407 142.8 128.067 158.435 113.721 167.837C99.3748 177.239 83.0327 180.404 68.0867 175.137C53.1408 169.869 42.3941 157.157 37.1129 140.838C31.8317 124.518 32.0208 104.601 38.9433 84.9587C45.8658 65.3168 58.2063 49.6826 72.5527 40.2803C86.899 30.8782 103.241 27.7127 118.187 32.9802Z" stroke="#8584F6" stroke-opacity="0.14" stroke-width="0.394917"/>
<path opacity="0.810127" d="M117.507 32.9529C147.968 43.393 161.84 83.6704 148.364 122.987C134.889 162.304 99.2261 185.604 68.7655 175.164C38.3051 164.724 24.4327 124.446 37.9082 85.1295C51.3837 45.8127 87.0464 22.5131 117.507 32.9529Z" stroke="#8584F6" stroke-opacity="0.14" stroke-width="0.394917"/>
<path opacity="0.822785" d="M116.867 32.9451C147.897 43.2996 162.512 83.5126 149.391 122.831C136.271 162.149 100.437 185.527 69.4069 175.173C38.3771 164.819 23.7626 124.605 36.8827 85.2873C50.0029 45.9692 85.8375 22.5907 116.867 32.9451Z" stroke="#8584F6" stroke-opacity="0.14" stroke-width="0.394917"/>
<path opacity="0.835443" d="M116.265 32.9544C147.86 43.2317 163.195 83.3792 150.408 122.689C137.621 161.998 101.601 185.439 70.0068 175.162C38.413 164.884 23.0785 124.738 35.8652 85.4289C48.6521 46.1198 84.6715 22.6775 116.265 32.9544Z" stroke="#8584F6" stroke-opacity="0.14" stroke-width="0.394917"/>
<path opacity="0.848101" d="M115.706 32.9817C147.859 43.1914 163.892 83.2732 151.415 122.564C138.939 161.855 102.721 185.344 70.5675 175.135C38.4142 164.925 22.3816 124.844 34.8574 85.5533C47.3335 46.2623 83.5523 22.772 115.706 32.9817Z" stroke="#8584F6" stroke-opacity="0.14" stroke-width="0.394917"/>
<path opacity="0.860759" d="M115.187 33.0258C147.894 43.1789 164.602 83.1956 152.414 122.459C140.226 161.722 103.795 185.243 71.0874 175.09C38.3797 164.937 21.671 124.921 33.859 85.6572C46.0472 46.3939 82.4792 22.8728 115.187 33.0258Z" stroke="#8584F6" stroke-opacity="0.14" stroke-width="0.394917"/>
<path opacity="0.873418" d="M114.708 33.0866C147.965 43.1949 165.326 83.1501 153.403 122.377C141.48 161.604 104.821 185.14 71.5643 175.032C38.3077 164.924 20.9464 124.968 32.8694 85.7413C44.7924 46.5143 81.4516 22.9784 114.708 33.0866Z" stroke="#8584F6" stroke-opacity="0.14" stroke-width="0.394917"/>
<path opacity="0.886076" d="M114.273 33.1609C148.074 43.2377 166.064 83.1352 154.383 122.318C142.702 161.5 105.801 185.033 72.0005 174.957C38.1998 164.88 20.2083 124.982 31.8895 85.7996C43.5707 46.617 80.4723 23.0841 114.273 33.1609Z" stroke="#8584F6" stroke-opacity="0.14" stroke-width="0.394917"/>
<path opacity="0.898734" d="M113.879 33.2512C148.218 43.3107 166.817 83.1561 155.354 122.286C143.891 161.416 106.733 184.927 72.3932 174.867C38.0539 164.807 19.4558 124.963 30.9184 85.8335C42.3811 46.7038 79.5391 23.1919 113.879 33.2512Z" stroke="#8584F6" stroke-opacity="0.14" stroke-width="0.394917"/>
<path opacity="0.911392" d="M113.529 33.3532C148.402 43.4109 167.583 83.21 156.315 122.28C145.047 161.349 107.618 184.82 72.7449 174.762C37.872 164.705 18.6901 124.906 29.9578 85.8369C41.2258 46.7674 78.6554 23.2955 113.529 33.3532Z" stroke="#8584F6" stroke-opacity="0.14" stroke-width="0.394917"/>
<path opacity="0.924051" d="M113.221 33.4716C148.622 43.5442 168.364 83.3034 157.267 122.305C146.17 161.307 108.455 184.718 73.0539 174.646C37.6526 164.574 17.91 124.814 29.0068 85.8123C40.1038 46.8107 77.8197 23.3992 113.221 33.4716Z" stroke="#8584F6" stroke-opacity="0.14" stroke-width="0.394917"/>
<path opacity="0.936709" d="M112.955 33.6013C148.879 43.706 169.157 83.435 158.208 122.362C147.259 161.289 109.242 184.62 73.3182 174.516C37.3942 164.411 17.1156 124.682 28.0649 85.7552C39.0142 46.8285 77.0306 23.4967 112.955 33.6013Z" stroke="#8584F6" stroke-opacity="0.14" stroke-width="0.394917"/>
<path opacity="0.949367" d="M112.733 33.7437C149.174 43.8994 169.965 83.6073 159.139 122.452C148.314 161.297 109.982 184.529 73.5413 174.373C37.1 164.217 16.3081 124.509 27.1336 85.6641C37.9592 46.819 76.2914 23.588 112.733 33.7437Z" stroke="#8584F6" stroke-opacity="0.14" stroke-width="0.394917"/>
<path opacity="0.962025" d="M112.552 33.8991C149.505 44.1254 170.786 83.8233 160.061 122.58C149.335 161.336 110.673 184.444 73.7199 174.218C36.7673 163.991 15.4864 124.295 26.2117 85.5383C36.9371 46.7819 75.599 23.673 112.552 33.8991Z" stroke="#8584F6" stroke-opacity="0.14" stroke-width="0.394917"/>
<path opacity="0.974684" d="M112.416 34.066C149.874 44.3837 171.621 84.0824 160.972 122.744C150.323 161.405 111.316 184.369 73.8578 174.051C36.3993 163.733 14.6528 124.035 25.3016 85.3742C35.9506 46.7129 74.9572 23.7482 112.416 34.066Z" stroke="#8584F6" stroke-opacity="0.14" stroke-width="0.394917"/>
<path opacity="0.987342" d="M112.321 34.2458C150.279 44.6767 172.467 84.3876 161.871 122.947C151.275 161.507 111.911 184.303 73.9527 173.873C35.9944 163.442 13.8058 123.731 24.4018 85.1712C34.998 46.6116 74.3632 23.8151 112.321 34.2458Z" stroke="#8584F6" stroke-opacity="0.14" stroke-width="0.394917"/>
<circle cx="93.1365" cy="104.059" r="72.204" transform="rotate(15.3653 93.1365 104.059)" stroke="#8584F6" stroke-opacity="0.14" stroke-width="0.394917"/>
</g>
<defs>
<filter id="filter0_f_52_31463" x="1.73076" y="21.4412" width="182.811" height="165.235" filterUnits="userSpaceOnUse" color-interpolation-filters="sRGB">
<feFlood flood-opacity="0" result="BackgroundImageFix"/>
<feBlend mode="normal" in="SourceGraphic" in2="BackgroundImageFix" result="shape"/>
<feGaussianBlur stdDeviation="4.4" result="effect1_foregroundBlur_52_31463"/>
</filter>
</defs>
</svg>
