<svg width="320" height="240" viewBox="0 0 320 240" fill="none" xmlns="http://www.w3.org/2000/svg">
<rect width="320" height="240" fill="#F3F5F7"/>
<rect x="135" y="91" width="50" height="33" rx="9.5" stroke="#6B6EF0"/>
<path d="M145.794 109.07L149.042 102.616H151.436L148.118 109.07H145.794ZM145.794 110.302V109.07L146.522 108.44H153.718V110.302H145.794ZM150.456 112.5V106.382H152.612V112.5H150.456ZM159.127 112.654C158.334 112.654 157.615 112.439 156.971 112.01C156.327 111.581 155.819 110.983 155.445 110.218C155.081 109.443 154.899 108.552 154.899 107.544C154.899 106.527 155.081 105.64 155.445 104.884C155.809 104.119 156.309 103.526 156.943 103.106C157.578 102.677 158.297 102.462 159.099 102.462C159.911 102.462 160.635 102.677 161.269 103.106C161.904 103.526 162.403 104.119 162.767 104.884C163.141 105.649 163.327 106.541 163.327 107.558C163.327 108.575 163.141 109.467 162.767 110.232C162.403 110.997 161.904 111.595 161.269 112.024C160.644 112.444 159.93 112.654 159.127 112.654ZM159.113 110.708C159.524 110.708 159.879 110.591 160.177 110.358C160.476 110.115 160.705 109.761 160.863 109.294C161.031 108.818 161.115 108.239 161.115 107.558C161.115 106.867 161.031 106.289 160.863 105.822C160.705 105.355 160.476 105.005 160.177 104.772C159.879 104.529 159.519 104.408 159.099 104.408C158.698 104.408 158.343 104.525 158.035 104.758C157.737 104.991 157.508 105.341 157.349 105.808C157.191 106.275 157.111 106.853 157.111 107.544C157.111 108.235 157.191 108.813 157.349 109.28C157.508 109.747 157.737 110.101 158.035 110.344C158.343 110.587 158.703 110.708 159.113 110.708ZM165.049 112.5L170.971 102.616H172.931L167.009 112.5H165.049ZM171.237 112.64C170.855 112.64 170.505 112.547 170.187 112.36C169.879 112.173 169.632 111.926 169.445 111.618C169.259 111.301 169.165 110.951 169.165 110.568C169.165 110.176 169.259 109.831 169.445 109.532C169.632 109.224 169.879 108.977 170.187 108.79C170.495 108.603 170.841 108.51 171.223 108.51C171.625 108.51 171.979 108.603 172.287 108.79C172.605 108.977 172.857 109.224 173.043 109.532C173.23 109.831 173.323 110.176 173.323 110.568C173.323 110.951 173.23 111.301 173.043 111.618C172.857 111.935 172.605 112.187 172.287 112.374C171.979 112.551 171.629 112.64 171.237 112.64ZM171.237 111.184C171.415 111.184 171.559 111.128 171.671 111.016C171.783 110.904 171.839 110.755 171.839 110.568C171.839 110.4 171.783 110.26 171.671 110.148C171.559 110.027 171.415 109.966 171.237 109.966C171.069 109.966 170.929 110.027 170.817 110.148C170.705 110.26 170.649 110.4 170.649 110.568C170.649 110.755 170.705 110.904 170.817 111.016C170.929 111.128 171.069 111.184 171.237 111.184ZM166.729 106.592C166.347 106.592 165.997 106.503 165.679 106.326C165.371 106.139 165.124 105.892 164.937 105.584C164.751 105.267 164.657 104.912 164.657 104.52C164.657 104.137 164.751 103.792 164.937 103.484C165.124 103.176 165.371 102.933 165.679 102.756C165.987 102.569 166.333 102.476 166.715 102.476C167.117 102.476 167.471 102.569 167.779 102.756C168.097 102.933 168.349 103.176 168.535 103.484C168.722 103.792 168.815 104.137 168.815 104.52C168.815 104.912 168.722 105.267 168.535 105.584C168.349 105.892 168.097 106.139 167.779 106.326C167.471 106.503 167.121 106.592 166.729 106.592ZM166.729 105.136C166.907 105.136 167.051 105.08 167.163 104.968C167.275 104.856 167.331 104.711 167.331 104.534C167.331 104.357 167.275 104.212 167.163 104.1C167.051 103.988 166.907 103.932 166.729 103.932C166.561 103.932 166.421 103.988 166.309 104.1C166.197 104.212 166.141 104.357 166.141 104.534C166.141 104.711 166.197 104.856 166.309 104.968C166.421 105.08 166.561 105.136 166.729 105.136Z" fill="#6B6EF0"/>
<rect x="62.5" y="139.5" width="195" height="10" rx="5" fill="#D9D9D9"/>
<rect x="62.5" y="139.5" width="82" height="10" rx="5" fill="#6B6EF0"/>
</svg>
