<svg width="320" height="240" viewBox="0 0 320 240" fill="none" xmlns="http://www.w3.org/2000/svg">
<rect width="320" height="240" fill="#F3F5F7"/>
<path d="M81.9999 126.594L76.8124 129.719C76.5833 129.865 76.3437 129.927 76.0937 129.906C75.8437 129.885 75.6249 129.802 75.4374 129.656C75.2499 129.51 75.1041 129.328 74.9999 129.11C74.8958 128.892 74.8749 128.647 74.9374 128.375L76.3124 122.469L71.7187 118.5C71.5103 118.312 71.3803 118.099 71.3287 117.859C71.277 117.619 71.2924 117.385 71.3749 117.156C71.4574 116.928 71.5824 116.74 71.7499 116.594C71.9174 116.447 72.1466 116.353 72.4374 116.313L78.4999 115.781L80.8437 110.219C80.9478 109.969 81.1095 109.781 81.3287 109.656C81.5478 109.531 81.7716 109.469 81.9999 109.469C82.2283 109.469 82.452 109.531 82.6712 109.656C82.8903 109.781 83.052 109.969 83.1562 110.219L85.4999 115.781L91.5624 116.313C91.8541 116.354 92.0833 116.448 92.2499 116.594C92.4166 116.74 92.5416 116.927 92.6249 117.156C92.7083 117.385 92.7241 117.62 92.6724 117.86C92.6208 118.1 92.4903 118.313 92.2812 118.5L87.6874 122.469L89.0624 128.375C89.1249 128.646 89.1041 128.891 88.9999 129.11C88.8958 129.329 88.7499 129.511 88.5624 129.656C88.3749 129.801 88.1562 129.885 87.9062 129.906C87.6562 129.928 87.4166 129.865 87.1874 129.719L81.9999 126.594Z" fill="#6B6EF0"/>
<path d="M121 126.594L115.812 129.719C115.583 129.865 115.344 129.927 115.094 129.906C114.844 129.885 114.625 129.802 114.437 129.656C114.25 129.51 114.104 129.328 114 129.11C113.896 128.892 113.875 128.647 113.937 128.375L115.312 122.469L110.719 118.5C110.51 118.312 110.38 118.099 110.329 117.859C110.277 117.619 110.292 117.385 110.375 117.156C110.457 116.928 110.582 116.74 110.75 116.594C110.917 116.447 111.147 116.353 111.437 116.313L117.5 115.781L119.844 110.219C119.948 109.969 120.11 109.781 120.329 109.656C120.548 109.531 120.772 109.469 121 109.469C121.228 109.469 121.452 109.531 121.671 109.656C121.89 109.781 122.052 109.969 122.156 110.219L124.5 115.781L130.562 116.313C130.854 116.354 131.083 116.448 131.25 116.594C131.417 116.74 131.542 116.927 131.625 117.156C131.708 117.385 131.724 117.62 131.672 117.86C131.621 118.1 131.49 118.313 131.281 118.5L126.687 122.469L128.062 128.375C128.125 128.646 128.104 128.891 128 129.11C127.896 129.329 127.75 129.511 127.562 129.656C127.375 129.801 127.156 129.885 126.906 129.906C126.656 129.928 126.417 129.865 126.187 129.719L121 126.594Z" fill="#6B6EF0"/>
<path d="M160 126.594L154.812 129.719C154.583 129.865 154.344 129.927 154.094 129.906C153.844 129.885 153.625 129.802 153.437 129.656C153.25 129.51 153.104 129.328 153 129.11C152.896 128.892 152.875 128.647 152.937 128.375L154.312 122.469L149.719 118.5C149.51 118.312 149.38 118.099 149.329 117.859C149.277 117.619 149.292 117.385 149.375 117.156C149.457 116.928 149.582 116.74 149.75 116.594C149.917 116.447 150.147 116.353 150.437 116.313L156.5 115.781L158.844 110.219C158.948 109.969 159.11 109.781 159.329 109.656C159.548 109.531 159.772 109.469 160 109.469C160.228 109.469 160.452 109.531 160.671 109.656C160.89 109.781 161.052 109.969 161.156 110.219L163.5 115.781L169.562 116.313C169.854 116.354 170.083 116.448 170.25 116.594C170.417 116.74 170.542 116.927 170.625 117.156C170.708 117.385 170.724 117.62 170.672 117.86C170.621 118.1 170.49 118.313 170.281 118.5L165.687 122.469L167.062 128.375C167.125 128.646 167.104 128.891 167 129.11C166.896 129.329 166.75 129.511 166.562 129.656C166.375 129.801 166.156 129.885 165.906 129.906C165.656 129.928 165.417 129.865 165.187 129.719L160 126.594Z" fill="#6B6EF0"/>
<path d="M199 126.594L193.812 129.719C193.583 129.865 193.344 129.927 193.094 129.906C192.844 129.885 192.625 129.802 192.437 129.656C192.25 129.51 192.104 129.328 192 129.11C191.896 128.892 191.875 128.647 191.937 128.375L193.312 122.469L188.719 118.5C188.51 118.312 188.38 118.099 188.329 117.859C188.277 117.619 188.292 117.385 188.375 117.156C188.457 116.928 188.582 116.74 188.75 116.594C188.917 116.447 189.147 116.353 189.437 116.313L195.5 115.781L197.844 110.219C197.948 109.969 198.11 109.781 198.329 109.656C198.548 109.531 198.772 109.469 199 109.469C199.228 109.469 199.452 109.531 199.671 109.656C199.89 109.781 200.052 109.969 200.156 110.219L202.5 115.781L208.562 116.313C208.854 116.354 209.083 116.448 209.25 116.594C209.417 116.74 209.542 116.927 209.625 117.156C209.708 117.385 209.724 117.62 209.672 117.86C209.621 118.1 209.49 118.313 209.281 118.5L204.687 122.469L206.062 128.375C206.125 128.646 206.104 128.891 206 129.11C205.896 129.329 205.75 129.511 205.562 129.656C205.375 129.801 205.156 129.885 204.906 129.906C204.656 129.928 204.417 129.865 204.187 129.719L199 126.594Z" fill="black"/>
<path d="M238 126.594L232.812 129.719C232.583 129.865 232.344 129.927 232.094 129.906C231.844 129.885 231.625 129.802 231.437 129.656C231.25 129.51 231.104 129.328 231 129.11C230.896 128.892 230.875 128.647 230.937 128.375L232.312 122.469L227.719 118.5C227.51 118.312 227.38 118.099 227.329 117.859C227.277 117.619 227.292 117.385 227.375 117.156C227.457 116.928 227.582 116.74 227.75 116.594C227.917 116.447 228.147 116.353 228.437 116.313L234.5 115.781L236.844 110.219C236.948 109.969 237.11 109.781 237.329 109.656C237.548 109.531 237.772 109.469 238 109.469C238.228 109.469 238.452 109.531 238.671 109.656C238.89 109.781 239.052 109.969 239.156 110.219L241.5 115.781L247.562 116.313C247.854 116.354 248.083 116.448 248.25 116.594C248.417 116.74 248.542 116.927 248.625 117.156C248.708 117.385 248.724 117.62 248.672 117.86C248.621 118.1 248.49 118.313 248.281 118.5L243.687 122.469L245.062 128.375C245.125 128.646 245.104 128.891 245 129.11C244.896 129.329 244.75 129.511 244.562 129.656C244.375 129.801 244.156 129.885 243.906 129.906C243.656 129.928 243.417 129.865 243.187 129.719L238 126.594Z" fill="black"/>
</svg>
