<svg width="320" height="240" viewBox="0 0 320 240" fill="none" xmlns="http://www.w3.org/2000/svg">
<rect width="320" height="240" fill="#F3F5F7"/>
<circle cx="71" cy="116" r="14" fill="#6B6EF0"/>
<path d="M69.2026 118.558L75.7943 111.967C75.9498 111.811 76.1313 111.733 76.3387 111.733C76.5461 111.733 76.7276 111.811 76.8832 111.967C77.0387 112.122 77.1165 112.307 77.1165 112.521C77.1165 112.735 77.0387 112.92 76.8832 113.075L69.747 120.231C69.5915 120.386 69.41 120.464 69.2026 120.464C68.9952 120.464 68.8137 120.386 68.6582 120.231L65.3137 116.886C65.1582 116.731 65.0835 116.546 65.0897 116.332C65.0959 116.119 65.1771 115.934 65.3332 115.778C65.4892 115.622 65.6741 115.544 65.8877 115.545C66.1013 115.545 66.2859 115.623 66.4415 115.778L69.2026 118.558Z" fill="white"/>
<path d="M156.888 119.207L159.829 116.168C160.01 115.987 160.155 115.821 160.263 115.669C160.372 115.517 160.451 115.376 160.502 115.246C160.553 115.108 160.578 114.971 160.578 114.833C160.578 114.537 160.48 114.305 160.285 114.139C160.097 113.965 159.847 113.878 159.536 113.878C159.232 113.878 158.957 113.962 158.711 114.128C158.472 114.287 158.241 114.551 158.017 114.92L156.877 113.933C157.181 113.419 157.568 113.032 158.038 112.771C158.509 112.511 159.048 112.381 159.655 112.381C160.184 112.381 160.639 112.478 161.023 112.674C161.413 112.869 161.714 113.148 161.924 113.509C162.141 113.871 162.249 114.294 162.249 114.779C162.249 115.083 162.209 115.365 162.13 115.626C162.05 115.879 161.92 116.132 161.739 116.385C161.565 116.631 161.33 116.903 161.034 117.199L158.993 119.229L156.888 119.207ZM156.888 120.162V119.207L158.331 118.708H162.401V120.162H156.888Z" fill="#6B6EF0"/>
<circle cx="159.775" cy="116" r="13.4574" stroke="#6B6EF0" stroke-width="1.08527"/>
<path d="M90.6431 116.867C90.6431 116.448 90.9832 116.107 91.4028 116.107H136.767C137.187 116.107 137.527 116.448 137.527 116.867V116.867C137.527 117.287 137.187 117.627 136.767 117.627H91.4028C90.9832 117.627 90.6431 117.287 90.6431 116.867V116.867Z" fill="#6B6EF0"/>
<path d="M248.149 120.281C247.621 120.281 247.136 120.191 246.695 120.01C246.253 119.822 245.881 119.554 245.577 119.207L246.673 118.111C246.811 118.314 247.01 118.48 247.27 118.61C247.538 118.733 247.82 118.795 248.116 118.795C248.384 118.795 248.616 118.748 248.811 118.654C249.006 118.56 249.158 118.426 249.267 118.252C249.383 118.078 249.441 117.872 249.441 117.633C249.441 117.395 249.383 117.192 249.267 117.026C249.158 116.852 248.996 116.718 248.779 116.624C248.569 116.53 248.315 116.483 248.019 116.483C247.881 116.483 247.737 116.494 247.585 116.516C247.44 116.53 247.317 116.555 247.216 116.592L247.965 115.647C248.167 115.589 248.359 115.542 248.54 115.506C248.728 115.463 248.902 115.441 249.061 115.441C249.451 115.441 249.802 115.535 250.113 115.723C250.425 115.904 250.671 116.165 250.851 116.505C251.039 116.838 251.134 117.235 251.134 117.699C251.134 118.205 251.007 118.654 250.754 119.044C250.508 119.435 250.16 119.739 249.712 119.956C249.271 120.173 248.75 120.281 248.149 120.281ZM247.216 116.592V115.647L249.082 113.455L250.992 113.444L249.05 115.658L247.216 116.592ZM246.054 113.944V112.5H250.992V113.444L249.658 113.944H246.054Z" fill="#6B6EF0"/>
<circle cx="248.55" cy="116" r="13.4574" stroke="#6B6EF0" stroke-width="1.08527"/>
<path d="M179.419 116.867C179.419 116.448 179.759 116.107 180.179 116.107H225.543C225.963 116.107 226.303 116.448 226.303 116.867V116.867C226.303 117.287 225.963 117.627 225.543 117.627H180.179C179.759 117.627 179.419 117.287 179.419 116.867V116.867Z" fill="#6B6EF0"/>
</svg>
