<svg width="320" height="240" viewBox="0 0 320 240" fill="none" xmlns="http://www.w3.org/2000/svg">
<rect width="320" height="240" fill="#F3F5F7"/>
<ellipse cx="106.615" cy="52.7119" rx="3.61462" ry="3.47559" fill="#6C7081"/>
<path d="M121.352 52.2947C121.352 51.0662 122.347 50.0703 123.576 50.0703H158.054C159.282 50.0703 160.278 51.0662 160.278 52.2947V52.2947C160.278 53.5232 159.282 54.5191 158.054 54.5191H123.576C122.347 54.5191 121.352 53.5232 121.352 52.2947V52.2947Z" fill="#6C7380"/>
<path d="M121.352 62.3045C121.352 61.076 122.347 60.0801 123.576 60.0801H184.468C185.697 60.0801 186.693 61.076 186.693 62.3045V62.3045C186.693 63.533 185.697 64.5288 184.468 64.5288H123.576C122.347 64.5288 121.352 63.533 121.352 62.3045V62.3045Z" fill="#D2D6DB"/>
<path d="M106.615 91.2217C106.001 91.2217 105.503 90.7237 105.503 90.1095V61.1925C105.503 60.5783 106.001 60.0803 106.615 60.0803V60.0803C107.229 60.0803 107.727 60.5783 107.727 61.1925V90.1095C107.727 90.7237 107.229 91.2217 106.615 91.2217V91.2217Z" fill="#D2D6DB"/>
<path d="M121.352 72.3152C121.352 71.0867 122.347 70.0908 123.576 70.0908H214.776C216.004 70.0908 217 71.0867 217 72.3152V72.3152C217 73.5437 216.004 74.5396 214.776 74.5396H123.576C122.347 74.5396 121.352 73.5437 121.352 72.3152V72.3152Z" fill="#D2D6DB"/>
<ellipse cx="106.615" cy="102.483" rx="3.61462" ry="3.47559" fill="#6C7081"/>
<path d="M121.352 102.065C121.352 100.837 122.347 99.8408 123.576 99.8408H158.054C159.282 99.8408 160.278 100.837 160.278 102.065V102.065C160.278 103.294 159.282 104.29 158.054 104.29H123.576C122.347 104.29 121.352 103.294 121.352 102.065V102.065Z" fill="#6C7380"/>
<path d="M121.352 112.076C121.352 110.847 122.347 109.852 123.576 109.852H184.468C185.697 109.852 186.693 110.847 186.693 112.076V112.076C186.693 113.304 185.697 114.3 184.468 114.3H123.576C122.347 114.3 121.352 113.304 121.352 112.076V112.076Z" fill="#D2D6DB"/>
<path d="M106.615 140.992C106.001 140.992 105.503 140.494 105.503 139.88V110.963C105.503 110.349 106.001 109.851 106.615 109.851V109.851C107.229 109.851 107.727 110.349 107.727 110.963V139.88C107.727 140.494 107.229 140.992 106.615 140.992V140.992Z" fill="#D2D6DB"/>
<path d="M121.352 122.086C121.352 120.857 122.347 119.861 123.576 119.861H214.776C216.004 119.861 217 120.857 217 122.086V122.086C217 123.314 216.004 124.31 214.776 124.31H123.576C122.347 124.31 121.352 123.314 121.352 122.086V122.086Z" fill="#D2D6DB"/>
<ellipse cx="106.615" cy="152.254" rx="3.61462" ry="3.47559" fill="#6C7081"/>
<path d="M121.352 151.837C121.352 150.608 122.347 149.612 123.576 149.612H158.054C159.282 149.612 160.278 150.608 160.278 151.837V151.837C160.278 153.065 159.282 154.061 158.054 154.061H123.576C122.347 154.061 121.352 153.065 121.352 151.837V151.837Z" fill="#6C7380"/>
<path d="M121.352 161.846C121.352 160.618 122.347 159.622 123.576 159.622H184.468C185.697 159.622 186.693 160.618 186.693 161.846V161.846C186.693 163.075 185.697 164.071 184.468 164.071H123.576C122.347 164.071 121.352 163.075 121.352 161.846V161.846Z" fill="#D2D6DB"/>
<path d="M106.615 190.764C106.001 190.764 105.503 190.266 105.503 189.651V160.735C105.503 160.12 106.001 159.622 106.615 159.622V159.622C107.229 159.622 107.727 160.12 107.727 160.735V189.651C107.727 190.266 107.229 190.764 106.615 190.764V190.764Z" fill="#D2D6DB"/>
<path d="M121.352 171.855C121.352 170.627 122.347 169.631 123.576 169.631H214.776C216.004 169.631 217 170.627 217 171.855V171.855C217 173.084 216.004 174.08 214.776 174.08H123.576C122.347 174.08 121.352 173.084 121.352 171.855V171.855Z" fill="#D2D6DB"/>
</svg>
